<?xml version="1.0" standalone="no"?>
<!DOCTYPE svg PUBLIC "-//W3C//DTD SVG 20010904//EN"
 "http://www.w3.org/TR/2001/REC-SVG-20010904/DTD/svg10.dtd">
<svg version="1.0" xmlns="http://www.w3.org/2000/svg"
 width="447.000000pt" height="457.000000pt" viewBox="0 0 447.000000 457.000000"
 preserveAspectRatio="xMidYMid meet">

<g transform="translate(0.000000,457.000000) scale(0.100000,-0.100000)"
fill="#000000" stroke="none">
<path d="M1950 4544 c-140 -19 -321 -65 -445 -115 -483 -193 -873 -621 -1050
-1152 -56 -167 -82 -296 -97 -480 -10 -127 -10 -155 4 -220 18 -82 55 -177 69
-177 5 0 9 102 9 228 0 237 13 374 49 523 47 200 144 417 259 579 85 122 290
326 412 413 177 125 447 238 686 286 219 45 523 47 759 6 682 -119 1229 -539
1540 -1181 45 -93 70 -133 84 -137 12 -3 21 -13 21 -22 0 -14 -6 -16 -31 -11
-23 4 -30 3 -26 -7 3 -7 13 -42 23 -77 13 -47 15 -65 6 -68 -16 -5 -15 -30 4
-86 13 -37 20 -46 33 -41 30 12 36 10 39 -14 3 -21 1 -23 -25 -19 -15 3 -37 9
-47 13 -16 7 -18 5 -12 -11 4 -10 14 -48 23 -84 8 -36 19 -75 24 -88 7 -17 5
-24 -6 -28 -13 -5 -12 -12 7 -45 12 -21 37 -53 55 -71 32 -31 35 -32 47 -15
18 24 22 22 40 -24 10 -23 21 -38 25 -33 15 16 31 76 31 116 0 32 -4 40 -25
48 l-24 9 19 43 c23 52 26 80 6 72 -12 -4 -13 2 -5 33 14 61 11 123 -5 123
-11 0 -16 20 -21 78 -3 42 -12 92 -20 110 -8 18 -15 50 -15 72 0 29 -4 38 -13
34 -9 -3 -23 19 -42 68 -276 713 -993 1243 -1828 1353 -144 18 -393 18 -537
-1z m2277 -1328 c-9 -23 -37 -20 -37 3 0 21 20 33 34 20 5 -4 6 -15 3 -23z
m93 -86 c0 -13 -7 -20 -20 -20 -13 0 -20 7 -20 20 0 13 7 20 20 20 13 0 20 -7
20 -20z m-2 -84 c-4 -31 -38 -34 -38 -3 0 29 7 37 27 30 8 -3 13 -15 11 -27z
m32 -71 c0 -8 -7 -15 -15 -15 -8 0 -15 7 -15 15 0 8 7 15 15 15 8 0 15 -7 15
-15z m-70 -76 c0 -22 -25 -26 -33 -5 -6 16 12 38 25 30 4 -3 8 -14 8 -25z m85
11 c0 -7 -6 -15 -12 -17 -8 -3 -13 4 -13 17 0 13 5 20 13 18 6 -3 12 -11 12
-18z m13 -74 c-2 -13 -10 -21 -23 -21 -23 0 -33 34 -14 45 20 13 40 -1 37 -24z
m7 -56 c3 -5 1 -10 -4 -10 -6 0 -11 5 -11 10 0 6 2 10 4 10 3 0 8 -4 11 -10z
m5 -56 c0 -8 -7 -14 -15 -14 -15 0 -21 21 -9 33 10 9 24 -2 24 -19z m-80 -10
c0 -8 -7 -14 -15 -14 -15 0 -21 21 -9 33 10 9 24 -2 24 -19z m85 -34 c3 -5 -1
-10 -10 -10 -9 0 -13 5 -10 10 3 6 8 10 10 10 2 0 7 -4 10 -10z m-80 -31 c0
-15 -7 -25 -17 -27 -13 -3 -18 3 -18 21 0 13 3 27 7 31 13 12 28 -1 28 -25z
m102 -15 c8 -21 -13 -42 -28 -27 -13 13 -5 43 11 43 6 0 13 -7 17 -16z m-32
-64 c3 -5 -1 -10 -10 -10 -9 0 -13 5 -10 10 3 6 8 10 10 10 2 0 7 -4 10 -10z
m-55 -35 c0 -18 -5 -25 -20 -25 -20 0 -28 28 -13 43 15 16 33 6 33 -18z m80
-5 c0 -5 -12 -10 -26 -10 -14 0 -23 4 -19 10 3 6 15 10 26 10 10 0 19 -4 19
-10z"/>
<path d="M1670 4279 c-170 -19 -320 -58 -417 -108 -64 -33 -123 -71 -110 -71
5 0 68 18 140 40 213 64 255 71 475 77 233 7 321 -2 517 -52 282 -72 539 -192
775 -363 101 -73 312 -287 387 -392 62 -88 145 -228 157 -267 6 -17 3 -23 -8
-23 -22 0 -20 -15 10 -66 21 -36 24 -47 14 -59 -10 -12 -5 -24 25 -65 23 -31
35 -57 31 -67 -4 -9 4 -29 19 -49 17 -22 24 -41 20 -53 -4 -13 4 -31 24 -53
19 -22 28 -42 25 -54 -3 -10 1 -28 9 -38 13 -18 15 -17 27 20 19 60 21 60 46
13 21 -40 23 -57 24 -202 l0 -159 29 -29 c16 -16 39 -29 50 -29 21 0 85 51
101 80 9 17 5 18 -48 13 -56 -5 -59 -4 -85 27 -48 56 -31 109 46 145 33 16 43
26 45 48 2 16 1 35 -2 44 -5 12 -10 11 -32 -6 -15 -12 -35 -21 -45 -21 -25 0
-25 37 0 45 25 8 41 48 44 115 2 52 1 55 -20 52 -22 -3 -23 0 -23 75 0 78 -17
131 -34 104 -11 -18 -26 -3 -26 27 0 31 -27 75 -40 67 -5 -3 -14 14 -20 37
-25 99 -51 135 -74 103 -16 -22 -15 -22 -86 110 -262 489 -738 838 -1294 950
-216 43 -477 56 -676 34z m2020 -1190 c0 -5 -7 -9 -15 -9 -15 0 -20 12 -9 23
8 8 24 -1 24 -14z m60 -39 c0 -5 -6 -10 -14 -10 -8 0 -18 5 -21 10 -3 6 3 10
14 10 12 0 21 -4 21 -10z m10 -30 c0 -5 -5 -10 -11 -10 -5 0 -7 5 -4 10 3 6 8
10 11 10 2 0 4 -4 4 -10z m-52 -54 c-2 -11 -10 -22 -19 -24 -21 -4 -33 26 -18
44 15 18 41 5 37 -20z m97 -31 c0 -28 -29 -25 -33 3 -3 19 0 23 15 20 10 -2
18 -12 18 -23z m-45 -35 c0 -5 -4 -10 -10 -10 -5 0 -10 5 -10 10 0 6 5 10 10
10 6 0 10 -4 10 -10z m70 -36 c0 -8 -7 -14 -15 -14 -15 0 -21 21 -9 33 10 9
24 -2 24 -19z m-60 -45 c0 -14 -7 -19 -25 -19 -18 0 -25 5 -25 19 0 11 6 21
13 24 20 7 37 -4 37 -24z m96 16 c4 -8 3 -23 -1 -32 -4 -10 -8 -26 -9 -35 -1
-10 -5 -19 -11 -20 -11 -3 -20 66 -11 88 7 18 25 18 32 -1z m52 -123 c3 -16
-2 -22 -17 -22 -24 0 -35 15 -27 36 9 23 40 13 44 -14z m-18 -63 c0 -5 -7 -9
-15 -9 -15 0 -20 12 -9 23 8 8 24 -1 24 -14z"/>
<path d="M2336 4272 c-8 -13 32 -20 189 -32 210 -17 251 -31 546 -192 96 -53
273 -145 394 -206 237 -119 281 -148 351 -233 102 -122 152 -246 214 -520 22
-101 58 -246 80 -321 22 -76 46 -179 55 -230 18 -102 30 -126 39 -81 9 37 2
76 -77 458 -84 401 -116 496 -220 650 -89 130 -156 180 -472 350 -110 59 -263
142 -340 184 -271 149 -345 171 -586 178 -106 3 -169 2 -173 -5z"/>
<path d="M1879 4177 c-84 -35 -208 -104 -266 -148 -28 -22 -89 -79 -135 -127
-69 -72 -87 -96 -100 -142 -56 -188 -71 -231 -105 -289 -46 -77 -121 -165
-282 -333 -68 -71 -118 -128 -112 -128 16 0 329 278 372 331 68 83 100 144
139 269 22 69 52 146 67 172 73 122 271 287 439 364 40 19 76 39 79 44 11 17
-38 10 -96 -13z"/>
<path d="M794 3979 c-384 -269 -659 -696 -754 -1175 -34 -167 -39 -457 -11
-624 11 -69 27 -145 36 -170 l15 -45 -5 60 c-40 468 -34 624 32 865 94 347
213 535 588 930 199 210 219 243 99 159z"/>
<path d="M2062 3959 c-64 -11 -179 -57 -256 -104 -81 -48 -142 -101 -202 -173
-100 -122 -140 -223 -229 -581 -68 -272 -102 -368 -165 -462 -28 -41 -50 -78
-50 -83 0 -19 62 50 107 118 60 89 90 170 162 428 98 351 142 447 261 568 166
170 403 255 615 220 83 -13 142 -39 273 -119 194 -117 424 -222 691 -315 115
-40 133 -43 124 -21 -8 21 -84 59 -283 140 -218 88 -390 171 -522 251 -138 83
-219 121 -287 134 -63 12 -164 11 -239 -1z"/>
<path d="M3620 3363 c0 -5 32 -33 71 -63 122 -95 205 -213 258 -369 22 -64 58
-206 102 -406 18 -84 23 -96 31 -75 23 62 -34 373 -100 543 -53 136 -142 249
-258 327 -71 47 -104 60 -104 43z"/>
<path d="M2512 2913 c14 -2 32 -11 38 -19 7 -8 23 -14 36 -14 28 0 40 -16 25
-34 -9 -11 -4 -15 24 -20 36 -7 49 -26 18 -26 -15 0 -16 -2 -3 -10 8 -5 47
-10 85 -10 99 0 197 -24 272 -65 75 -41 98 -43 138 -11 27 21 28 25 15 42 -20
23 -153 85 -266 122 -107 36 -215 53 -327 51 -45 -1 -70 -4 -55 -6z"/>
<path d="M2511 2719 c-57 -11 -138 -37 -176 -57 l-30 -16 40 -7 c22 -4 72 -8
112 -8 60 -1 71 -4 67 -16 -8 -21 52 -20 127 1 60 17 82 34 93 70 5 16 0 23
-19 32 -29 14 -148 14 -214 1z"/>
<path d="M3138 2680 l-36 -30 20 -73 c52 -184 120 -357 140 -357 5 0 -24 -33
-64 -72 -109 -108 -208 -299 -208 -399 l0 -41 57 49 58 48 -43 -50 c-209 -246
-246 -330 -207 -480 31 -118 91 -162 326 -238 218 -71 259 -93 344 -185 184
-198 181 -195 221 -189 20 3 79 27 131 52 133 65 208 141 288 293 106 198 119
228 153 328 84 258 122 444 122 602 0 134 -34 442 -49 442 -4 0 -17 -33 -28
-73 -37 -123 -87 -174 -150 -151 -39 13 -50 43 -61 169 -5 61 -16 126 -24 145
l-15 35 -18 -80 c-21 -94 -44 -145 -81 -174 -47 -37 -95 -40 -139 -7 -18 13
-20 29 -25 183 -4 114 -10 176 -19 193 l-14 24 -13 -29 c-7 -17 -24 -56 -38
-89 -17 -39 -50 -84 -99 -135 -40 -42 -90 -99 -111 -128 -20 -29 -56 -67 -79
-85 -23 -17 -86 -75 -140 -128 l-98 -95 32 69 c19 41 35 92 37 123 2 29 11 58
18 64 44 37 -35 406 -103 482 -23 24 -43 21 -85 -13z m667 -340 c0 -22 -39
-19 -43 3 -3 15 1 18 20 15 12 -2 23 -10 23 -18z m322 -26 c8 -21 -13 -42 -28
-27 -13 13 -5 43 11 43 6 0 13 -7 17 -16z m-412 -49 c0 -11 -8 -21 -17 -23
-14 -3 -18 3 -18 23 0 20 4 26 18 23 9 -2 17 -12 17 -23z m-117 -79 c-2 -13
-12 -22 -25 -24 -19 -3 -23 1 -23 21 0 14 6 27 13 30 22 7 38 -5 35 -27z m772
19 c0 -8 -4 -15 -10 -15 -5 0 -10 7 -10 15 0 8 5 15 10 15 6 0 10 -7 10 -15z
m-522 -33 c3 -16 -2 -22 -16 -22 -22 0 -32 17 -24 38 7 20 37 9 40 -16z m-107
-82 c-12 -91 -37 -125 -26 -37 7 63 0 70 -35 32 -13 -14 -26 -23 -29 -20 -2 3
17 28 44 55 27 27 50 48 53 46 2 -2 -1 -37 -7 -76z m-273 7 c4 -21 -27 -35
-38 -17 -12 19 0 42 19 38 9 -2 17 -11 19 -21z m720 -5 c3 -18 -2 -22 -22 -22
-28 0 -34 18 -14 38 17 17 32 10 36 -16z m-150 -20 c-2 -9 -13 -18 -26 -20
-17 -3 -22 1 -22 21 0 13 3 27 6 30 12 11 45 -14 42 -31z m290 -60 c4 -47 2
-63 -7 -58 -6 4 -11 20 -11 35 0 44 -13 46 -32 4 -25 -58 -23 -7 3 63 18 48
23 54 32 39 5 -10 12 -47 15 -83z m62 73 c0 -17 -27 -38 -40 -30 -14 9 -13 42
3 48 18 6 37 -3 37 -18z m-526 9 c21 -8 21 -43 0 -51 -8 -3 -23 1 -31 10 -13
13 -14 19 -3 31 14 18 13 18 34 10z m-266 -83 c-2 -9 -13 -17 -26 -19 -16 -3
-22 2 -22 16 0 11 6 22 13 25 20 7 38 -4 35 -22z m539 -73 c-5 -74 -22 -128
-40 -128 -5 0 -6 12 -3 26 4 15 9 40 12 58 l5 31 -20 -36 c-19 -35 -51 -69
-51 -54 0 17 84 175 93 175 6 0 8 -28 4 -72z m283 31 c0 -20 -15 -26 -25 -9
-9 15 3 43 15 35 5 -3 10 -15 10 -26z m-960 -40 c-25 -64 -47 -99 -60 -99 -6
0 -4 16 5 37 18 44 14 51 -19 29 -29 -18 -36 -20 -36 -7 0 10 121 103 127 97
2 -2 -6 -28 -17 -57z m345 16 c0 -13 -8 -21 -22 -23 -24 -3 -28 4 -17 33 9 22
39 14 39 -10z m413 -43 c-2 -10 -15 -18 -31 -20 -21 -3 -27 1 -27 15 0 11 5
24 12 31 15 15 50 -4 46 -26z m-530 -8 c2 -13 -4 -24 -13 -28 -24 -9 -35 1
-35 30 0 21 4 25 23 22 13 -2 23 -11 25 -24z m717 1 c0 -11 -8 -21 -17 -23
-14 -3 -18 3 -18 23 0 20 4 26 18 23 9 -2 17 -12 17 -23z m-445 -35 c0 -24
-26 -38 -42 -22 -16 16 -2 42 22 42 13 0 20 -7 20 -20z m-690 -21 c0 -14 -7
-19 -25 -19 -18 0 -25 5 -25 19 0 11 6 21 13 24 20 7 37 -4 37 -24z m261 -109
l-20 -55 6 63 c3 34 3 62 -1 62 -3 0 -18 -19 -33 -41 -15 -23 -29 -36 -31 -30
-4 13 37 81 72 119 l21 24 3 -44 c2 -25 -6 -66 -17 -98z m737 58 c-2 -13 -10
-23 -18 -23 -8 0 -16 10 -18 23 -3 17 2 22 18 22 16 0 21 -5 18 -22z m-418
-27 c0 -33 -17 -86 -39 -120 -21 -32 -26 -10 -7 28 9 16 16 39 16 51 0 20 -2
19 -45 -10 -25 -17 -45 -27 -45 -21 0 10 100 100 113 101 4 0 7 -13 7 -29z
m520 -17 c0 -17 -6 -24 -20 -24 -14 0 -20 7 -20 23 0 13 3 26 6 30 12 12 34
-6 34 -29z m-702 -7 c4 -20 -25 -34 -39 -20 -14 14 1 45 20 41 9 -2 17 -11 19
-21z m457 -17 c0 -18 -6 -26 -23 -28 -13 -2 -25 3 -28 12 -10 26 4 48 28 44
17 -2 23 -10 23 -28z m-177 -24 c5 -24 -10 -38 -31 -30 -17 6 -23 35 -10 48
12 12 38 1 41 -18z m280 -79 c-3 -52 -10 -102 -17 -113 -10 -16 -11 -7 -7 49
3 37 1 67 -4 67 -5 0 -23 -20 -40 -45 -62 -91 -49 -33 16 68 24 37 47 67 50
67 4 0 5 -42 2 -93z m-988 -45 c-33 -68 -54 -74 -26 -8 8 20 13 36 10 36 -3 0
-22 -11 -42 -25 -37 -26 -58 -32 -47 -16 13 22 130 102 133 92 2 -6 -11 -42
-28 -79z m-115 43 c0 -30 -39 -27 -43 3 -3 20 0 23 20 20 15 -2 23 -10 23 -23z
m1225 10 c0 -8 -7 -15 -15 -15 -8 0 -15 7 -15 15 0 8 7 15 15 15 8 0 15 -7 15
-15z m-920 -19 c0 -32 -20 -44 -36 -22 -16 23 -7 46 17 46 13 0 19 -7 19 -24z
m338 -17 c4 -19 -27 -34 -41 -20 -14 14 0 43 20 39 10 -2 19 -10 21 -19z m212
12 c0 -21 -41 -138 -54 -156 -14 -18 -15 -18 -16 -3 0 10 7 36 16 58 9 23 14
43 11 46 -3 3 -22 -10 -43 -28 -46 -41 -32 -11 24 50 38 40 62 53 62 33z
m-352 -49 c-5 -24 -52 -23 -56 2 -2 10 2 22 9 27 18 11 51 -9 47 -29z m697 3
c0 -23 -34 -33 -45 -14 -13 20 1 40 24 37 13 -2 21 -10 21 -23z m-1315 -31 c0
-8 -10 -14 -25 -14 -18 0 -25 5 -25 19 0 11 6 21 13 24 15 6 37 -11 37 -29z
m1318 -36 c-7 -19 -38 -22 -38 -4 0 10 9 16 21 16 12 0 19 -5 17 -12z m-850
-26 c3 -16 -2 -22 -17 -22 -24 0 -35 15 -27 36 9 23 40 13 44 -14z m-373 -7
c0 -11 -8 -21 -17 -23 -14 -3 -18 3 -18 23 0 20 4 26 18 23 9 -2 17 -12 17
-23z m195 -74 c-33 -71 -60 -108 -60 -80 1 8 7 25 15 39 23 40 19 53 -10 34
-13 -9 -29 -14 -35 -12 -6 2 17 24 52 50 35 25 65 45 67 43 2 -2 -12 -36 -29
-74z m840 54 c0 -18 -5 -25 -20 -25 -20 0 -28 28 -13 43 15 16 33 6 33 -18z
m160 0 c0 -8 -7 -15 -15 -15 -8 0 -15 7 -15 15 0 8 7 15 15 15 8 0 15 -7 15
-15z m-515 -30 c0 -13 -8 -21 -22 -23 -19 -3 -23 1 -23 23 0 22 4 26 23 23 14
-2 22 -10 22 -23z m-135 6 c0 -5 -7 -28 -15 -51 -8 -23 -15 -53 -15 -65 0 -13
7 -25 15 -29 16 -6 21 -41 6 -50 -36 -23 -56 43 -35 114 8 25 14 46 14 48 0 8
-22 -3 -69 -33 -55 -36 -86 -42 -86 -15 0 8 15 17 37 22 21 4 59 21 85 38 51
31 63 36 63 21z m635 -46 c0 -22 -31 -33 -47 -17 -17 17 -1 44 24 40 15 -2 23
-10 23 -23z m-330 -5 c9 -15 -4 -50 -20 -50 -20 0 -30 40 -14 51 18 11 26 11
34 -1z m-865 -18 c0 -12 -53 -83 -79 -106 -29 -26 -27 -8 4 34 14 18 23 35 21
37 -1 2 -19 -4 -39 -12 -78 -32 -72 -6 7 31 52 24 86 31 86 16z m300 -17 c0
-18 -5 -25 -19 -25 -11 0 -21 6 -24 13 -7 20 4 37 24 37 14 0 19 -7 19 -25z
m-217 -29 c8 -21 -17 -50 -37 -43 -16 6 -22 38 -9 50 11 12 41 7 46 -7z m1022
-31 c0 -13 -8 -21 -22 -23 -19 -3 -23 1 -23 23 0 22 4 26 23 23 14 -2 22 -10
22 -23z m-705 -10 c0 -25 -23 -35 -35 -15 -10 16 2 40 20 40 9 0 15 -9 15 -25z
m596 -38 c-4 -30 -14 -63 -21 -73 -13 -17 -14 -14 -8 31 l6 50 -35 -39 c-19
-22 -40 -37 -48 -34 -10 3 3 23 44 66 33 34 61 60 64 58 2 -3 1 -30 -2 -59z
m-266 32 c0 -18 -61 -126 -81 -145 -26 -23 -24 -8 6 45 34 59 31 66 -12 36
-45 -30 -69 -33 -33 -4 91 74 120 90 120 68z m-540 -34 c0 -9 -7 -18 -16 -22
-18 -7 -39 11 -30 26 11 17 46 13 46 -4z m-135 -55 c0 -18 -6 -26 -22 -28 -18
-3 -23 1 -23 21 0 28 9 39 30 35 9 -2 15 -14 15 -28z m793 2 c4 -29 -26 -42
-44 -18 -17 24 -6 48 20 44 13 -2 22 -12 24 -26z m-508 14 c0 -2 -17 -35 -39
-72 -43 -76 -72 -100 -46 -38 8 20 13 39 11 41 -2 3 -23 -5 -46 -17 -23 -12
-44 -19 -47 -16 -4 4 23 23 132 92 20 13 35 17 35 10z m160 -56 c0 -13 -7 -20
-20 -20 -13 0 -20 7 -20 20 0 13 7 20 20 20 13 0 20 -7 20 -20z m-112 -54 c5
-24 -10 -38 -31 -30 -17 6 -23 35 -10 48 12 12 38 1 41 -18z m542 -1 c13 -16
6 -35 -15 -35 -18 0 -28 17 -21 35 7 19 20 19 36 0z m-400 -136 c-17 -41 -35
-78 -40 -83 -15 -15 -12 16 5 57 21 50 20 52 -21 28 -37 -22 -70 -28 -59 -11
7 11 138 91 142 86 2 -1 -11 -36 -27 -77z m200 37 c0 -14 -4 -27 -9 -30 -18
-11 -41 6 -41 30 0 19 5 24 25 24 20 0 25 -5 25 -24z m67 -123 c-9 -27 -18
-60 -21 -75 -4 -16 -11 -28 -16 -28 -13 0 -13 20 1 59 16 44 6 48 -39 17 -81
-55 -60 -19 28 51 30 23 56 38 58 33 2 -5 -3 -31 -11 -57z m-179 -6 c4 -22
-24 -33 -43 -17 -12 10 -13 16 -4 27 16 18 43 13 47 -10z"/>
<path d="M2755 2670 c-11 -35 4 -74 58 -146 29 -38 74 -99 100 -136 55 -77 70
-88 126 -88 33 0 41 4 41 18 0 43 -198 300 -269 348 -43 29 -48 30 -56 4z"/>
<path d="M2045 2596 c-76 -22 -105 -34 -105 -46 0 -5 16 -10 36 -10 31 0 35
-3 29 -20 -7 -23 -17 -22 230 -20 121 0 154 -4 252 -35 18 -6 25 0 42 34 12
22 21 42 21 44 0 6 -70 35 -115 47 -65 19 -331 22 -390 6z"/>
<path d="M2558 2513 c-42 -49 -41 -51 46 -147 44 -49 111 -121 148 -159 l67
-69 31 19 c17 10 40 28 52 40 l21 22 -52 65 c-78 98 -250 246 -286 246 -6 0
-19 -8 -27 -17z"/>
<path d="M3944 2476 c-51 -22 -60 -81 -19 -121 49 -50 125 -20 125 49 0 62
-50 96 -106 72z m74 -39 c31 -24 -6 -81 -49 -75 -26 3 -50 43 -42 65 11 30 59
35 91 10z"/>
<path d="M4233 2440 c-48 -20 -58 -95 -18 -135 26 -27 20 -34 -11 -10 -10 8
-23 15 -28 15 -13 0 -1 -106 13 -124 22 -26 74 -20 103 12 33 34 47 82 25 82
-12 0 -10 6 8 25 30 29 33 83 8 114 -21 24 -68 35 -100 21z m68 -30 c22 -12
26 -59 7 -78 -20 -20 -65 -14 -82 10 -20 29 -20 34 4 58 22 22 42 25 71 10z"/>
<path d="M1842 2400 c-72 -13 -164 -46 -231 -81 l-56 -30 38 5 c34 4 37 3 32
-14 -5 -17 1 -20 45 -26 36 -5 48 -10 41 -17 -27 -27 -5 -24 59 8 179 90 304
106 464 60 96 -28 126 -31 144 -13 33 33 -3 57 -135 89 -100 24 -314 34 -401
19z"/>
<path d="M2396 2291 c-11 -12 -15 -27 -11 -40 7 -24 227 -233 288 -274 50 -34
90 -33 95 1 8 57 -105 181 -255 279 -44 29 -85 53 -90 53 -6 0 -18 -9 -27 -19z"/>
<path d="M3018 2270 c-18 -11 -38 -69 -69 -200 l-17 -75 1 90 2 90 -25 -3
c-33 -3 -67 -37 -82 -81 -14 -42 -16 -519 -2 -563 26 -81 60 -1 72 167 l9 130
2 -102 c2 -153 29 -145 62 17 9 47 38 140 65 205 46 116 48 124 48 225 1 105
1 105 -24 107 -14 2 -33 -2 -42 -7z"/>
<path d="M197 2238 c-9 -7 -40 -85 -68 -173 l-51 -160 5 -160 c6 -180 28 -283
98 -471 128 -347 287 -547 594 -751 112 -75 248 -153 265 -153 26 0 -13 30
-104 82 -245 138 -448 309 -544 458 -77 119 -164 382 -197 596 -13 83 -16 147
-12 264 8 251 22 227 22 -38 0 -225 2 -243 29 -357 59 -252 151 -449 273 -582
84 -92 249 -221 368 -288 63 -36 50 -22 -40 40 -97 68 -274 243 -335 331 -65
93 -125 222 -149 316 -29 112 -40 231 -45 493 -4 234 -4 236 4 65 22 -422 47
-574 120 -725 72 -149 223 -327 373 -439 72 -54 187 -123 187 -112 0 3 -36 33
-80 66 -44 34 -78 65 -75 70 3 5 -27 48 -67 97 -39 48 -76 95 -82 103 -6 8 51
-49 126 -125 76 -77 137 -137 138 -134 0 4 -36 47 -81 95 -149 165 -230 312
-264 483 -17 84 -17 188 1 406 5 53 2 80 -10 109 -20 49 -15 56 14 19 20 -25
21 -36 16 -108 -17 -220 -18 -371 -3 -441 33 -154 139 -346 248 -449 55 -52
43 -30 -23 40 -85 92 -150 242 -163 382 -5 47 -1 119 10 217 23 184 14 267
-39 369 -29 54 -37 82 -41 140 -4 70 -4 70 6 22 6 -27 13 -61 16 -75 l6 -25 7
25 c5 14 9 81 11 150 l2 125 7 -170 c6 -161 16 -215 40 -215 17 0 25 73 25
217 0 90 3 133 8 115 13 -43 13 -188 0 -307 -16 -140 -34 -379 -40 -516 -5
-121 9 -193 57 -293 30 -62 132 -196 151 -196 5 0 -9 27 -31 61 -143 209 -160
373 -84 779 16 81 28 191 32 275 4 102 8 132 14 110 14 -49 -8 -271 -44 -445
-24 -118 -35 -361 -19 -445 11 -61 84 -227 108 -247 7 -6 -5 27 -27 73 -98
206 -96 296 14 667 26 91 36 143 36 194 0 43 4 67 10 63 25 -15 9 -124 -45
-316 -31 -107 -60 -226 -66 -264 -10 -78 0 -181 26 -254 19 -53 56 -121 67
-121 12 0 11 5 -22 67 -65 125 -77 302 -27 419 14 32 48 110 75 173 78 175 79
253 6 373 -19 31 -50 98 -69 148 -18 51 -44 104 -57 118 -48 52 -135 67 -192
33 -17 -10 -51 -22 -76 -26 -89 -13 -100 -27 -58 -72 28 -30 12 -29 -34 2 -29
19 -41 38 -57 88 -29 86 -75 127 -143 127 -19 0 -42 -6 -51 -12z m412 -338 c0
-8 -6 -1 -13 15 -7 17 -28 43 -45 58 -29 24 -30 27 -12 27 14 0 25 10 33 28
10 25 11 23 24 -43 7 -38 13 -77 13 -85z m-174 -375 c15 -378 24 -431 92 -555
45 -83 83 -131 207 -257 55 -57 96 -103 90 -103 -17 0 -185 172 -239 244 -127
170 -152 261 -165 596 -5 135 -11 297 -14 360 -3 82 -2 106 5 85 5 -16 16
-183 24 -370z m84 117 c5 -70 13 -203 16 -297 8 -226 33 -329 110 -461 24 -40
27 -50 11 -30 -44 52 -105 188 -115 256 -6 36 -18 187 -26 335 -9 149 -18 295
-20 325 -4 43 -3 49 4 27 5 -15 14 -85 20 -155z"/>
<path d="M861 2116 c-19 -22 20 -162 70 -256 l24 -45 3 43 c2 26 -6 70 -18
108 -12 36 -20 67 -17 70 11 11 41 -89 63 -210 23 -130 28 -145 42 -132 12 13
8 199 -7 249 -17 60 -7 73 16 21 14 -30 18 -65 18 -149 0 -133 -8 -158 -115
-385 -88 -186 -100 -222 -99 -300 l1 -55 14 65 c14 65 23 86 147 323 37 71 76
156 86 190 11 34 20 54 20 44 1 -29 -45 -137 -129 -307 -42 -85 -85 -179 -95
-209 -24 -73 -17 -206 13 -275 30 -67 38 -52 12 23 -48 143 -9 288 130 481 90
126 141 233 147 311 3 35 0 83 -5 106 -5 24 -6 41 -2 38 16 -10 32 -118 25
-171 -8 -65 -31 -110 -142 -276 -47 -70 -99 -160 -116 -200 -28 -65 -32 -83
-32 -168 0 -76 4 -102 18 -124 10 -15 20 -26 22 -24 1 1 -3 32 -11 68 -19 86
-9 174 26 247 15 32 65 106 112 164 97 121 124 173 146 279 20 99 6 196 -43
296 -53 109 -65 120 -159 149 -92 28 -148 32 -165 11z m258 -280 c1 -67 -5
-55 -12 24 -4 40 -2 57 3 45 5 -11 9 -42 9 -69z"/>
<path d="M2758 1925 c-44 -64 -69 -180 -75 -337 -5 -121 -3 -144 17 -209 24
-79 74 -143 107 -137 25 5 28 98 9 260 -9 70 -17 171 -17 225 -1 54 -4 130 -8
168 l-6 70 -27 -40z"/>
<path d="M2415 1231 c-33 -5 -43 -12 -57 -41 -10 -19 -18 -52 -18 -73 0 -36 2
-38 28 -35 24 3 27 6 24 38 l-3 35 20 -32 c17 -27 27 -33 56 -33 19 0 35 4 35
8 0 4 14 13 30 19 34 13 39 37 13 65 -9 10 -13 21 -10 25 4 3 18 -6 32 -21 29
-31 59 -31 63 1 7 45 -85 64 -213 44z m56 -73 c8 -15 8 -18 0 -14 -6 4 -16 16
-22 28 -8 15 -8 18 0 14 6 -4 16 -16 22 -28z"/>
<path d="M2669 1167 c-81 -28 -133 -66 -159 -117 -46 -90 -8 -190 90 -240 19
-10 109 -41 199 -70 209 -68 233 -86 365 -272 72 -101 145 -130 274 -108 138
23 253 103 315 219 54 99 10 82 -164 -63 -71 -59 -132 -107 -134 -105 -2 3 50
51 116 109 109 96 137 130 108 130 -18 0 -50 -20 -169 -105 -112 -80 -160
-111 -160 -101 0 2 42 34 93 69 50 36 114 84 140 107 l48 43 -22 23 -22 23
-76 -58 c-123 -92 -212 -154 -216 -149 -3 3 39 36 93 75 107 78 172 137 172
156 0 16 -20 37 -36 37 -7 0 -69 -43 -139 -95 -69 -52 -131 -95 -138 -95 -14
0 -7 6 68 60 89 64 175 140 175 155 0 21 -26 24 -53 7 -15 -9 -59 -42 -99 -73
-40 -31 -86 -64 -103 -74 l-30 -17 26 23 c14 13 65 57 113 97 59 49 86 78 82
88 -7 17 -5 16 74 -36 75 -50 80 -52 80 -43 0 19 -99 119 -152 153 -35 23
-117 57 -215 90 -87 29 -187 66 -223 84 -36 17 -69 33 -74 35 -5 2 1 -11 14
-29 31 -43 94 -82 191 -116 43 -16 79 -31 78 -34 -1 -9 -220 -152 -225 -147
-3 3 30 30 74 60 88 62 107 81 97 97 -13 21 -55 9 -126 -38 -108 -70 -149 -94
-149 -89 0 3 43 36 95 73 52 37 95 71 95 75 0 5 -11 11 -25 15 -19 5 -52 -11
-151 -70 -70 -42 -132 -76 -138 -76 -13 0 10 16 100 68 110 64 162 122 109
122 -7 0 -76 -34 -153 -75 -77 -41 -144 -75 -148 -75 -17 1 31 31 136 87 120
64 141 79 133 99 -9 24 -40 16 -175 -46 -71 -33 -133 -60 -137 -59 -3 0 39 23
94 50 156 79 185 98 179 114 -4 8 -16 15 -29 15 -19 0 -155 -50 -218 -81 -21
-10 -21 -10 1 10 12 10 63 36 112 57 50 20 93 41 96 46 11 17 -113 7 -177 -15z
m605 -236 c16 -6 5 -18 -67 -73 -47 -37 -98 -75 -114 -84 -52 -34 -7 12 63 63
35 26 70 60 76 75 14 30 14 30 42 19z m94 -40 c9 -5 1 -16 -30 -36 -24 -16
-74 -54 -113 -85 -85 -69 -119 -87 -51 -28 27 24 77 69 110 100 66 62 65 62
84 49z"/>
<path d="M2135 1134 c-5 -1 -23 -5 -38 -9 -16 -3 -51 -26 -78 -52 -55 -51 -64
-88 -26 -102 21 -9 21 -9 -8 -15 -75 -17 -105 -28 -143 -53 -54 -37 -83 -76
-89 -121 -7 -54 39 -108 210 -245 79 -63 160 -134 181 -158 47 -55 159 -219
154 -224 -2 -3 -32 35 -66 84 -33 49 -84 113 -113 142 l-51 54 46 -54 c25 -29
75 -95 111 -147 58 -83 101 -133 81 -93 -4 8 4 1 18 -16 14 -16 26 -36 26 -42
0 -7 5 -13 10 -13 21 0 26 -2 58 -22 31 -19 45 -20 165 -16 118 5 141 8 213
37 44 17 89 37 100 45 38 28 2 29 -81 2 -49 -16 -115 -29 -157 -31 -40 -2 -62
-2 -48 1 152 29 188 37 212 50 16 8 26 19 23 24 -10 16 -59 12 -193 -15 -69
-14 -129 -24 -135 -22 -5 1 54 18 132 36 77 18 141 36 141 40 0 18 -28 31 -65
31 -23 0 -90 -9 -150 -20 -60 -11 -123 -20 -139 -19 -17 1 12 9 64 19 107 20
209 46 217 54 14 14 -23 35 -64 38 l-45 3 24 22 24 23 54 -46 55 -46 -54 51
c-30 28 -61 51 -68 51 -8 0 -12 4 -9 9 7 11 -70 70 -101 77 -13 4 -21 10 -18
14 3 5 0 12 -7 16 -7 4 -9 3 -5 -2 4 -4 -38 -18 -95 -30 -57 -12 -116 -25
-133 -29 -22 -5 -26 -4 -15 4 8 5 55 20 105 32 49 12 93 26 96 32 4 5 13 6 20
2 36 -20 -13 17 -84 64 -43 29 -76 55 -74 57 3 3 37 -11 76 -30 39 -20 71 -34
71 -31 0 6 -167 90 -200 100 -20 6 -16 1 15 -23 72 -55 93 -75 70 -67 -45 17
-66 16 -139 -4 -80 -22 -129 -28 -91 -11 11 5 53 19 93 30 107 31 86 44 -62
37 l-121 -6 87 18 c94 19 104 23 93 41 -5 8 -41 10 -124 6 l-116 -5 85 14
c114 20 120 23 96 41 -11 8 -31 14 -45 15 -26 0 -26 0 -3 9 36 15 29 48 -13
56 -35 6 -39 24 -5 24 24 0 33 15 25 40 -6 18 -13 18 -113 13 -132 -7 -129 5
4 18 66 6 103 14 115 25 22 20 16 34 -16 34 -35 0 -54 10 -49 25 3 7 -2 27
-11 44 -22 44 -5 38 27 -9 20 -29 35 -40 53 -40 32 0 33 25 4 75 -31 52 -18
52 19 0 28 -40 35 -44 52 -35 21 11 27 35 10 45 -5 3 -10 11 -10 17 0 6 8 4
18 -5 31 -28 92 -19 92 12 0 28 -21 41 -65 41 -22 0 -54 4 -70 8 -17 5 -34 8
-40 6z m-157 -341 c-15 -2 -42 -2 -60 0 -18 2 -6 4 27 4 33 0 48 -2 33 -4z
m20 -70 c-26 -2 -71 -2 -100 0 -29 2 -8 3 47 3 55 0 79 -1 53 -3z m428 -204
c42 -25 43 -31 4 -16 -22 8 -44 8 -92 -2 -86 -19 -158 -29 -153 -21 2 4 35 12
72 19 37 7 79 19 93 26 33 19 37 19 76 -6z m173 -123 c11 -13 9 -16 -11 -21
-160 -37 -206 -45 -246 -45 -34 0 -43 3 -32 10 8 5 34 10 58 10 47 0 168 25
191 40 13 7 13 11 0 26 -13 16 -12 16 7 6 11 -6 26 -18 33 -26z m-124 -131
c-27 -7 -63 -13 -80 -13 -23 0 -19 3 20 13 28 7 64 13 80 13 23 0 19 -3 -20
-13z"/>
<path d="M1704 1063 c-51 -7 -67 -33 -68 -111 -1 -63 0 -67 23 -70 22 -4 23
-2 16 50 -4 38 -3 49 4 38 6 -8 11 -23 11 -32 0 -26 36 -58 65 -58 30 0 30 2
9 64 -21 61 -12 70 10 11 10 -25 24 -45 32 -45 22 0 54 37 54 62 l0 22 16 -22
c29 -42 88 -16 64 28 -23 43 -147 76 -236 63z"/>
<path d="M2380 1060 c-36 -4 -82 -15 -101 -23 -45 -18 -106 -71 -125 -108 -18
-37 -18 -112 1 -150 20 -37 108 -102 236 -175 55 -31 97 -60 94 -64 -3 -4 18
-23 47 -41 103 -66 214 -177 239 -238 5 -13 12 -21 16 -18 3 4 -6 24 -20 44
-55 79 -119 142 -199 197 -45 31 -78 56 -74 56 18 0 172 -110 210 -149 22 -22
65 -78 95 -123 45 -66 66 -87 105 -107 64 -33 136 -33 233 -2 76 25 185 101
191 135 9 43 -17 39 -115 -21 -165 -102 -190 -108 -51 -14 104 71 111 81 60
81 -27 0 -62 -12 -109 -37 -110 -59 -124 -65 -129 -60 -2 2 33 26 78 53 80 47
102 75 66 82 -10 2 -44 -12 -75 -31 -81 -48 -126 -71 -118 -58 3 6 25 21 48
33 87 44 130 93 98 112 -5 3 -55 -17 -111 -45 -56 -27 -105 -47 -108 -44 -7 7
-9 5 83 54 44 23 88 51 98 63 17 21 18 21 70 -35 49 -54 107 -84 107 -57 0 6
-22 37 -48 68 -27 31 -59 73 -70 93 -28 47 -99 112 -151 138 -62 32 -63 25 -1
-10 70 -38 101 -68 156 -151 24 -37 58 -83 75 -103 17 -19 27 -35 23 -35 -25
0 -77 45 -109 94 -43 63 -42 63 -165 -3 -41 -22 -82 -40 -90 -41 -8 0 10 14
40 31 30 17 77 44 103 60 27 16 54 26 60 23 7 -4 7 -1 -1 7 -7 8 -16 14 -20
15 -4 0 -15 4 -24 8 -11 5 -49 -7 -109 -34 -50 -22 -98 -40 -107 -38 -9 2 27
23 81 47 53 24 97 50 97 57 0 15 11 18 26 7 5 -5 0 0 -11 11 -11 10 -44 32
-73 48 -28 17 -49 34 -46 39 3 5 -6 9 -20 9 -14 0 -26 -2 -26 -4 0 -2 34 -23
75 -45 41 -23 75 -43 75 -44 0 -1 -17 -3 -37 -4 -22 0 -82 -21 -138 -47 -115
-53 -101 -36 22 27 46 23 83 45 83 49 0 4 -12 11 -26 14 -18 5 -50 -4 -107
-29 -45 -19 -93 -38 -107 -42 -45 -13 -8 10 62 39 76 32 100 52 77 67 -25 16
-58 10 -156 -31 -53 -22 -98 -39 -100 -37 -2 2 37 22 87 45 164 75 90 84 -94
12 -55 -22 -102 -37 -105 -35 -6 7 -7 6 91 49 48 21 95 44 105 52 36 27 -57
15 -164 -22 -57 -20 -107 -34 -109 -31 -3 3 45 24 105 47 168 65 145 79 -55
34 -64 -14 -117 -24 -120 -21 -2 2 42 16 97 30 99 26 129 40 129 58 0 13 -56
10 -130 -6 -86 -19 -132 -17 -55 2 136 34 165 44 165 58 0 34 -94 26 -235 -20
-11 -3 -7 1 9 10 16 10 68 27 116 39 48 11 87 26 86 31 -1 12 -93 12 -156 1
-34 -6 -42 -6 -34 3 5 6 50 16 99 23 93 12 125 29 125 68 0 22 -3 22 -110 10z"/>
<path d="M1366 984 c-37 -20 -21 -40 18 -23 23 11 29 10 37 -2 8 -12 12 -11
24 5 8 11 15 14 15 7 0 -15 45 -61 60 -61 20 0 10 32 -19 61 -34 34 -87 39
-135 13z"/>
<path d="M1550 918 c0 -33 14 -51 36 -46 39 7 23 68 -17 68 -13 0 -19 -7 -19
-22z"/>
<path d="M1345 916 c-40 -17 -95 -72 -111 -113 -19 -45 -17 -107 6 -199 48
-186 108 -302 210 -405 100 -101 178 -140 292 -147 63 -4 79 -2 73 8 -15 24
-99 70 -129 71 -17 0 -40 4 -51 9 -16 7 -13 9 18 9 20 1 37 5 37 10 0 18 -44
41 -80 42 -19 0 -44 4 -55 9 -16 7 -14 9 15 9 19 1 42 6 50 11 13 9 13 11 0
20 -8 5 -28 12 -45 14 -16 3 -52 9 -80 15 l-50 10 73 -2 c80 -2 90 7 46 42
-16 13 -43 21 -68 22 -43 1 -108 15 -91 19 6 1 35 1 66 0 31 -1 59 3 63 8 13
21 -24 47 -81 58 l-58 12 53 1 c45 1 52 4 52 21 0 26 -29 40 -103 49 l-62 8
68 2 c59 1 67 3 67 20 0 36 -13 53 -54 72 l-41 19 38 0 c25 0 37 5 37 14 0 21
-21 33 -70 41 -25 4 -52 12 -60 17 -10 6 -2 7 25 3 125 -19 117 -19 113 1 -2
10 -32 36 -68 57 -60 35 -51 43 12 11 35 -18 67 -18 74 1 8 21 -14 45 -56 63
-19 8 -30 17 -23 19 6 2 30 -5 52 -16 48 -25 79 -27 88 -6 7 20 -23 54 -64 71
-40 17 -89 17 -128 0z"/>
<path d="M1031 907 c-55 -19 -75 -56 -79 -146 -11 -233 159 -504 364 -580 58
-22 104 -27 104 -12 0 22 -64 60 -117 71 -66 14 -110 35 -53 26 19 -3 47 -9
63 -12 20 -5 27 -3 27 9 0 24 -26 39 -103 58 l-72 18 63 -6 c52 -5 62 -3 62
10 0 12 -27 25 -92 46 -51 17 -79 29 -63 26 132 -21 143 -19 108 24 -12 13
-47 28 -97 41 -44 11 -82 22 -84 25 -12 12 6 12 53 -1 65 -17 105 -18 105 -1
0 25 -47 58 -111 77 -64 20 -59 20 54 3 29 -4 37 -2 37 10 0 19 -33 40 -90 56
-51 15 -104 40 -98 47 3 2 38 -7 78 -21 88 -30 90 -30 90 -5 0 21 -42 47 -112
69 -21 7 -40 16 -43 21 -3 5 16 2 42 -6 26 -8 63 -18 81 -21 32 -6 33 -5 30
23 -3 25 -10 31 -50 45 -67 22 -68 27 -3 17 31 -5 61 -6 66 -2 17 10 -10 33
-52 44 -22 6 -39 15 -39 20 0 5 23 2 51 -6 28 -9 57 -13 65 -10 20 8 17 34 -5
46 -26 13 -138 12 -180 -3z"/>
<path d="M1658 859 c-90 -14 -142 -65 -154 -151 -18 -129 125 -417 279 -566
123 -117 244 -153 406 -118 84 18 100 28 81 51 -9 11 -32 15 -84 16 l-71 0 48
15 c36 11 47 19 45 32 -3 15 -19 17 -133 16 l-130 -2 100 14 c116 16 125 19
125 38 0 23 -56 29 -203 23 -97 -4 -115 -3 -67 3 171 23 255 28 269 16 10 -7
8 0 -4 24 -24 46 -121 147 -198 205 l-62 46 50 -43 c27 -24 72 -64 100 -90
l50 -47 -35 5 c-19 3 -82 9 -140 13 l-105 8 95 2 c106 1 142 13 97 30 -16 6
-58 11 -95 11 -37 0 -74 5 -82 10 -10 7 7 10 58 10 54 0 73 3 70 13 -7 20 -68
36 -148 38 -41 0 -102 5 -135 9 -50 6 -37 7 73 9 143 1 160 9 90 41 -32 15
-69 20 -143 21 l-100 2 98 10 c63 6 96 14 94 21 -5 16 -66 35 -114 35 -23 1
-45 6 -48 11 -4 6 18 10 58 10 51 0 68 -4 82 -20 10 -11 22 -17 27 -14 5 3 1
13 -9 21 -10 8 -12 12 -5 8 6 -3 12 -2 12 4 0 13 -35 32 -43 24 -4 -3 -12 -1
-20 5 -7 6 -46 15 -87 20 l-75 9 73 2 c57 1 72 4 72 16 0 9 -12 18 -30 22 -44
8 -47 23 -6 23 47 0 55 18 15 32 l-33 11 43 11 c78 20 36 48 -51 35z m492
-579 c0 -3 -93 -3 -207 -1 -223 4 -216 14 20 27 80 4 122 10 130 20 10 11 16
8 34 -14 13 -15 23 -29 23 -32z m-47 -197 c-7 -2 -19 -2 -25 0 -7 3 -2 5 12 5
14 0 19 -2 13 -5z"/>
<path d="M2755 720 c3 -5 16 -10 28 -10 18 0 19 2 7 10 -20 13 -43 13 -35 0z"/>
<path d="M1740 695 c0 -8 5 -15 10 -15 6 0 10 7 10 15 0 8 -4 15 -10 15 -5 0
-10 -7 -10 -15z"/>
<path d="M1820 607 c0 -7 12 -24 27 -38 25 -22 26 -22 9 -1 -31 36 -8 26 73
-34 42 -30 60 -41 41 -24 -63 56 -150 112 -150 97z"/>
<path d="M885 580 c10 -11 20 -20 23 -20 3 0 -3 9 -13 20 -10 11 -20 20 -23
20 -3 0 3 -9 13 -20z"/>
<path d="M2030 455 c13 -14 26 -25 28 -25 3 0 -5 11 -18 25 -13 14 -26 25 -28
25 -3 0 5 -11 18 -25z"/>
<path d="M2204 181 c24 -46 107 -131 129 -131 5 0 -8 13 -30 29 -23 16 -58 57
-78 90 -21 34 -40 61 -42 61 -2 0 8 -22 21 -49z"/>
<path d="M2363 43 c9 -2 23 -2 30 0 6 3 -1 5 -18 5 -16 0 -22 -2 -12 -5z"/>
</g>
</svg>
