<?xml version="1.0" standalone="no"?>
<!DOCTYPE svg PUBLIC "-//W3C//DTD SVG 20010904//EN"
 "http://www.w3.org/TR/2001/REC-SVG-20010904/DTD/svg10.dtd">
<svg version="1.0" xmlns="http://www.w3.org/2000/svg"
 width="4463.000000pt" height="569.000000pt" viewBox="0 0 4463.000000 569.000000"
 preserveAspectRatio="xMidYMid meet">

<g transform="translate(0.000000,569.000000) scale(0.100000,-0.100000)"
fill="#000000" stroke="none">
<path d="M32820 5680 c-284 -14 -624 -102 -865 -222 -430 -216 -792 -582
-1021 -1034 -156 -307 -238 -607 -266 -972 -11 -150 -11 -161 10 -252 13 -53
35 -122 51 -155 26 -54 29 -57 34 -35 3 14 8 153 11 310 7 379 28 527 112 785
47 147 187 427 271 544 128 179 410 451 577 559 90 57 321 169 451 217 130 49
333 100 481 121 163 24 531 24 704 0 445 -60 859 -225 1203 -479 346 -255 601
-567 831 -1015 46 -91 87 -157 101 -166 36 -24 33 -49 -5 -44 -17 3 -33 2 -35
-2 -2 -4 5 -35 15 -69 22 -70 25 -112 9 -128 -12 -12 2 -77 26 -124 11 -21 19
-25 44 -21 28 4 31 2 31 -23 0 -24 -3 -26 -26 -21 -63 16 -87 19 -81 9 3 -5
20 -61 37 -124 26 -96 29 -117 19 -136 -11 -21 -8 -30 27 -80 23 -32 53 -66
67 -77 25 -19 27 -19 46 -2 21 19 22 18 51 -39 8 -16 19 -29 25 -28 17 3 36
77 33 133 -3 46 -7 57 -25 65 -28 12 -28 12 -3 75 24 61 25 80 4 80 -12 0 -15
6 -10 23 3 12 9 50 13 85 5 51 3 66 -11 81 -11 12 -22 55 -31 117 -8 55 -21
121 -30 148 -8 27 -15 60 -15 73 0 14 -9 32 -19 41 -11 10 -46 78 -78 152
-278 644 -830 1157 -1541 1434 -402 157 -782 218 -1222 196z m2685 -1650 c8
-13 -13 -40 -31 -40 -14 0 -19 31 -7 43 10 10 31 8 38 -3z m115 -131 c0 -12
-7 -19 -20 -19 -24 0 -38 29 -20 40 19 12 40 1 40 -21z m-5 -79 c11 -18 -6
-50 -26 -50 -13 0 -19 7 -19 23 0 13 3 27 7 30 10 10 31 8 38 -3z m43 -112
c-3 -7 -11 -13 -18 -13 -7 0 -15 6 -17 13 -3 7 4 12 17 12 13 0 20 -5 18 -12z
m15 -72 c6 -15 -1 -26 -15 -26 -4 0 -8 9 -8 20 0 23 15 27 23 6z m-103 -15 c0
-11 -5 -23 -11 -27 -15 -9 -33 12 -26 30 9 23 37 20 37 -3z m118 -79 c4 -28
-24 -40 -45 -19 -14 13 -14 19 -3 32 18 22 44 15 48 -13z m12 -82 c0 -5 -2
-10 -4 -10 -3 0 -8 5 -11 10 -3 6 -1 10 4 10 6 0 11 -4 11 -10z m5 -61 c0 -7
-8 -15 -17 -17 -18 -3 -25 18 -11 32 10 10 28 1 28 -15z m-101 -6 c8 -19 -14
-37 -28 -23 -10 10 -1 40 13 40 5 0 12 -8 15 -17z m106 -53 c0 -5 -4 -10 -10
-10 -5 0 -10 5 -10 10 0 6 5 10 10 10 6 0 10 -4 10 -10z m-100 -41 c0 -22 -5
-29 -20 -29 -23 0 -28 38 -8 58 16 16 28 5 28 -29z m125 -29 c0 -27 -22 -39
-31 -16 -8 22 3 49 19 43 6 -2 12 -14 12 -27z m-35 -70 c0 -5 -4 -10 -10 -10
-5 0 -10 5 -10 10 0 6 5 10 10 10 6 0 10 -4 10 -10z m-72 -43 c3 -22 -1 -27
-18 -27 -26 0 -37 25 -20 45 18 22 34 13 38 -18z m102 -7 c0 -5 -11 -10 -25
-10 -14 0 -25 5 -25 10 0 6 11 10 25 10 14 0 25 -4 25 -10z"/>
<path d="M978 5444 c-111 -17 -252 -64 -348 -115 -224 -121 -442 -357 -537
-582 -73 -174 -92 -296 -93 -597 0 -368 44 -545 193 -773 73 -111 96 -138 797
-921 338 -378 636 -718 661 -757 73 -109 94 -187 93 -344 0 -91 -6 -149 -18
-194 -66 -240 -216 -352 -496 -368 -141 -8 -244 12 -366 72 -192 94 -274 224
-274 432 l0 83 -296 0 -297 0 7 -112 c39 -607 300 -924 853 -1035 105 -21 901
-31 1043 -13 258 33 484 145 674 336 186 187 294 398 332 647 24 156 15 600
-14 714 -43 165 -118 320 -226 463 -29 39 -345 398 -702 797 -357 399 -668
754 -691 790 -80 123 -109 235 -99 383 14 234 104 383 278 465 127 60 318 80
463 50 223 -47 356 -212 415 -517 l11 -58 291 0 290 0 -6 68 c-36 362 -140
619 -323 805 -156 158 -352 247 -620 282 -153 20 -865 20 -995 -1z"/>
<path d="M4080 2835 l0 -2625 585 0 585 0 0 1165 0 1165 585 0 585 0 0 -1165
0 -1165 580 0 580 0 0 2625 0 2625 -580 0 -580 0 0 -1165 0 -1165 -585 0 -585
0 0 1165 0 1165 -585 0 -585 0 0 -2625z"/>
<path d="M8750 2835 l0 -2625 585 0 585 0 0 1165 0 1165 323 0 c366 0 414 -6
529 -67 132 -69 239 -192 290 -335 l23 -63 3 -933 3 -932 580 0 580 0 -3 1098
-3 1097 -23 62 c-51 137 -160 263 -282 327 -114 60 -153 66 -450 67 l-265 2
94 13 c212 31 385 96 512 192 189 144 359 450 404 727 18 108 21 544 4 661
-70 505 -487 922 -994 994 -43 6 -533 10 -1282 10 l-1213 0 0 -2625z m1883
2030 c198 -42 382 -217 438 -420 11 -39 14 -139 14 -450 0 -392 0 -401 -23
-463 -51 -143 -158 -266 -290 -335 -115 -61 -163 -67 -529 -67 l-323 0 0 875
0 875 323 0 c241 0 339 -4 390 -15z"/>
<path d="M14010 2835 l0 -2625 580 0 580 0 0 2625 0 2625 -580 0 -580 0 0
-2625z"/>
<path d="M16920 2835 l0 -2625 295 0 295 0 1 1603 0 1602 1017 -1022 1018
-1022 1022 1022 1022 1022 0 -1603 0 -1602 585 0 585 0 0 2625 0 2625 -292 0
-293 0 -1242 -1242 -1242 -1242 -328 322 c-180 176 -742 735 -1248 1241 l-920
921 -137 0 -138 0 0 -2625z"/>
<path d="M23920 2835 l0 -2625 585 0 585 0 0 1165 0 1165 628 0 c361 0 657 5
697 10 125 18 228 50 340 105 351 173 602 513 654 889 14 101 14 811 0 912
-70 505 -487 922 -994 994 -43 6 -533 10 -1282 10 l-1213 0 0 -2625z m1883
2030 c198 -42 382 -217 438 -420 11 -39 14 -139 14 -450 0 -392 0 -401 -23
-463 -51 -143 -158 -266 -290 -335 -115 -61 -163 -67 -529 -67 l-323 0 0 875
0 875 323 0 c241 0 339 -4 390 -15z"/>
<path d="M37040 2825 l0 -2625 585 0 585 0 0 1165 0 1165 628 0 c361 0 657 5
697 10 125 18 228 50 340 105 351 173 602 513 654 889 14 101 14 811 0 912
-70 505 -487 922 -994 994 -43 6 -533 10 -1282 10 l-1213 0 0 -2625z m1883
2030 c198 -42 382 -217 438 -420 11 -39 14 -139 14 -450 0 -392 0 -401 -23
-463 -51 -143 -158 -266 -290 -335 -115 -61 -163 -67 -529 -67 l-323 0 0 875
0 875 323 0 c241 0 339 -4 390 -15z"/>
<path d="M42688 5434 c-111 -17 -252 -64 -348 -115 -224 -121 -442 -357 -537
-582 -73 -174 -92 -296 -93 -597 0 -368 44 -545 193 -773 73 -111 96 -138 797
-921 338 -378 636 -718 661 -757 73 -109 94 -187 93 -344 0 -91 -6 -149 -18
-194 -66 -240 -216 -352 -496 -368 -141 -8 -244 12 -366 72 -192 94 -274 224
-274 432 l0 83 -296 0 -297 0 7 -112 c39 -607 300 -924 853 -1035 105 -21 901
-31 1043 -13 258 33 484 145 674 336 186 187 294 398 332 647 24 156 15 600
-14 714 -43 165 -118 320 -226 463 -29 39 -345 398 -702 797 -357 399 -668
754 -691 790 -80 123 -109 235 -99 383 14 234 104 383 278 465 127 60 318 80
463 50 223 -47 356 -212 415 -517 l11 -58 291 0 290 0 -6 68 c-36 362 -140
619 -323 805 -156 158 -352 247 -620 282 -153 20 -865 20 -995 -1z"/>
<path d="M32335 5339 c-125 -13 -261 -39 -370 -71 -96 -28 -283 -117 -307
-145 -8 -10 -8 -12 3 -9 79 28 383 110 449 122 117 21 545 31 665 15 345 -46
735 -184 1050 -374 164 -98 262 -174 407 -316 211 -205 309 -328 426 -536 60
-107 70 -135 48 -135 -27 0 -26 -15 4 -72 21 -40 28 -65 24 -85 -4 -21 3 -40
26 -76 18 -26 36 -66 42 -89 5 -22 18 -53 28 -69 11 -15 20 -40 20 -57 0 -17
12 -44 30 -67 17 -21 30 -50 30 -64 0 -26 24 -71 33 -61 2 3 10 21 18 42 8 20
19 37 24 39 6 1 20 -17 32 -42 19 -39 23 -67 29 -239 3 -107 4 -193 1 -190 -3
3 -10 87 -16 186 -6 114 -15 194 -24 215 l-15 34 -17 -40 c-54 -127 -89 -186
-156 -260 -39 -44 -94 -107 -121 -140 -46 -57 -409 -407 -415 -401 -2 2 10 32
26 67 16 35 36 100 45 144 9 44 21 84 26 89 17 17 11 153 -11 259 -25 128 -72
270 -105 320 -26 39 -63 49 -95 24 -8 -7 -28 -22 -43 -34 l-28 -22 32 -113
c40 -141 104 -319 136 -377 13 -24 24 -49 24 -55 0 -6 -27 -38 -60 -71 -143
-141 -270 -383 -270 -513 l0 -44 41 34 c81 66 82 62 8 -28 -152 -182 -221
-299 -234 -393 -8 -61 10 -161 42 -228 44 -95 116 -137 396 -233 278 -95 295
-105 481 -296 188 -193 176 -189 328 -120 161 72 256 151 344 283 72 108 212
398 254 523 48 144 101 344 127 480 25 135 23 431 -5 639 -12 85 -25 158 -30
163 -6 6 -20 -22 -37 -74 -47 -143 -90 -198 -154 -198 -72 0 -86 27 -111 217
-21 159 -38 225 -50 202 -4 -8 -13 -41 -20 -74 -35 -170 -100 -255 -195 -255
-37 0 -95 24 -95 39 0 5 -3 18 -7 28 -4 11 9 4 35 -19 23 -21 52 -38 65 -38
39 1 140 90 122 108 -4 4 -33 5 -66 4 -55 -4 -60 -2 -89 29 -57 62 -48 129 22
167 63 35 88 62 88 97 0 44 -12 50 -52 25 -18 -11 -41 -20 -50 -20 -25 0 -24
47 1 55 27 8 51 76 51 145 0 53 -2 59 -22 62 -22 3 -23 9 -29 104 -4 56 -9
107 -13 113 -4 6 -18 8 -30 5 -21 -5 -24 -1 -30 31 -10 52 -26 83 -45 88 -10
2 -24 27 -35 63 -36 117 -60 146 -94 112 -16 -16 -18 -13 -102 137 -89 159
-165 272 -269 396 -355 425 -877 718 -1437 808 -242 38 -530 51 -729 30z
m2493 -1487 c2 -7 -3 -12 -12 -12 -9 0 -16 7 -16 16 0 17 22 14 28 -4z m77
-52 c-3 -5 -12 -10 -20 -10 -8 0 -17 5 -20 10 -4 6 5 10 20 10 15 0 24 -4 20
-10z m15 -40 c0 -5 -4 -10 -10 -10 -5 0 -10 5 -10 10 0 6 5 10 10 10 6 0 10
-4 10 -10z m-67 -42 c6 -18 -11 -48 -28 -48 -19 0 -27 16 -20 40 7 22 41 27
48 8z m116 -42 c12 -14 5 -46 -10 -46 -11 0 -29 42 -22 53 7 11 19 8 32 -7z
m-49 -67 c0 -5 -4 -9 -10 -9 -5 0 -10 7 -10 16 0 8 5 12 10 9 6 -3 10 -10 10
-16z m82 -51 c-16 -16 -37 4 -28 28 6 16 8 16 23 1 13 -13 15 -19 5 -29z m46
-25 c9 -14 3 -51 -14 -103 -9 -26 -24 11 -24 61 0 59 18 79 38 42z m-120 -20
c3 -19 -1 -23 -22 -23 -28 0 -41 14 -32 36 9 24 50 13 54 -13z m186 -125 c14
-23 -5 -42 -33 -33 -20 6 -28 34 -14 49 11 11 35 3 47 -16z m-24 -83 c0 -8 -7
-15 -15 -15 -8 0 -15 7 -15 15 0 8 7 15 15 15 8 0 15 -7 15 -15z m-129 -376
c23 -12 16 -29 -11 -29 -21 0 -34 15 -25 30 8 13 12 12 36 -1z m414 -59 c0
-27 -22 -39 -31 -16 -8 22 3 49 19 43 6 -2 12 -14 12 -27z m-520 -50 c0 -27
-22 -39 -31 -16 -8 22 3 49 19 43 6 -2 12 -14 12 -27z m-141 -82 c12 -20 -8
-48 -35 -48 -22 0 -26 39 -7 58 15 15 28 11 42 -10z m966 7 c0 -8 -4 -15 -10
-15 -5 0 -10 7 -10 15 0 8 5 15 10 15 6 0 10 -7 10 -15z m-662 -17 c19 -19 15
-48 -8 -48 -23 0 -35 22 -26 45 7 18 18 19 34 3z m-114 -75 c-19 -140 -50
-218 -40 -100 7 76 -3 86 -44 42 -13 -14 -26 -23 -29 -20 -5 6 99 115 111 115
3 0 4 -17 2 -37z m-359 -29 c12 -12 13 -19 4 -30 -6 -8 -17 -14 -24 -14 -18 0
-27 30 -14 46 14 17 14 17 34 -2z m908 -13 c6 -25 0 -31 -30 -31 -22 0 -33 27
-16 43 13 14 41 6 46 -12z m-199 -7 c21 -21 20 -31 -4 -44 -27 -15 -40 -5 -40
31 0 33 19 39 44 13z m444 4 c16 -16 -3 -48 -28 -48 -14 0 -20 7 -20 23 0 37
24 49 48 25z m-634 -20 c16 -27 -14 -54 -43 -39 -24 13 -27 31 -9 49 16 16 38
12 52 -10z m557 -14 c11 -49 10 -146 -1 -139 -5 3 -10 18 -10 33 0 15 -4 33
-9 41 -7 11 -13 6 -27 -20 -16 -29 -19 -31 -22 -13 -4 29 37 136 51 131 7 -2
15 -17 18 -33z m-906 -54 c9 -15 -14 -40 -36 -40 -19 0 -27 29 -12 43 10 11
41 8 48 -3z m660 -205 c-27 -94 -48 -70 -26 30 9 40 9 40 -7 15 -28 -41 -64
-81 -69 -76 -5 4 68 153 96 195 16 25 16 24 19 -43 2 -40 -3 -89 -13 -121z
m365 140 c0 -26 -14 -33 -25 -15 -9 14 1 40 15 40 5 0 10 -11 10 -25z m-1194
-49 c-30 -79 -40 -99 -60 -116 -13 -10 -16 -10 -16 3 0 9 5 28 10 43 14 36 5
42 -31 20 -36 -21 -51 -13 -23 13 28 27 128 101 136 101 4 0 -3 -29 -16 -64z
m424 29 c16 -19 -3 -45 -31 -45 -21 0 -24 12 -9 41 13 23 23 24 40 4z m520
-65 c0 -12 -9 -22 -24 -26 -44 -11 -62 19 -30 50 20 20 54 5 54 -24z m-676 7
c26 -19 17 -52 -14 -52 -25 0 -37 22 -26 51 7 17 17 18 40 1z m905 -5 c12 -23
-2 -47 -23 -39 -24 10 -20 57 5 57 5 0 13 -8 18 -18z m-554 -42 c3 -6 3 -19 0
-30 -7 -23 -43 -27 -51 -5 -12 29 35 61 51 35z m-865 -26 c11 -12 11 -18 -2
-30 -18 -18 -48 -8 -48 15 0 33 28 42 50 15z m349 -90 c-6 -30 -16 -69 -24
-87 -13 -30 -13 -28 -8 41 3 39 3 72 0 72 -3 0 -20 -21 -37 -46 -18 -25 -34
-43 -37 -40 -10 9 9 46 54 108 l47 63 7 -29 c4 -15 3 -53 -2 -82z m905 27 c10
-16 -6 -42 -23 -39 -9 2 -17 13 -19 26 -3 16 2 22 17 22 11 0 22 -4 25 -9z
m-524 -56 c0 -42 -35 -138 -57 -157 -14 -11 -16 -11 -10 7 23 74 30 105 25
111 -4 3 -27 -6 -52 -21 -25 -15 -46 -23 -46 -18 -1 12 113 112 128 113 7 0
12 -13 12 -35z m638 13 c17 -17 15 -48 -4 -55 -23 -8 -38 12 -30 41 7 29 16
32 34 14z m-869 -26 c7 -13 6 -23 -1 -30 -28 -28 -63 3 -38 33 16 20 27 19 39
-3z m575 -17 c13 -34 -24 -66 -50 -44 -15 12 -19 41 -7 52 12 13 51 7 57 -8z
m-230 -31 c18 -18 19 -24 7 -42 -21 -33 -62 5 -47 44 7 18 21 18 40 -2z m366
-41 c0 -70 -19 -206 -31 -217 -8 -8 -9 8 -4 60 4 46 3 74 -4 78 -5 4 -29 -18
-52 -49 -74 -98 -60 -42 22 85 28 44 55 80 60 80 5 0 9 -17 9 -37z m-1210 -49
c0 -23 -59 -144 -71 -144 -12 0 -12 3 7 50 9 23 15 43 12 45 -2 2 -24 -9 -48
-25 -55 -37 -71 -38 -40 -5 25 27 119 94 133 95 4 0 7 -7 7 -16z m-186 -7 c19
-14 13 -47 -10 -47 -16 0 -37 37 -29 50 8 13 18 13 39 -3z m1542 2 c10 -17
-13 -36 -27 -22 -12 12 -4 33 11 33 5 0 12 -5 16 -11z m-1156 -14 c14 -17 4
-55 -15 -55 -22 0 -39 38 -24 56 15 18 23 18 39 -1z m414 -21 c20 -8 20 -28 0
-44 -12 -11 -18 -10 -31 3 -13 13 -14 19 -3 31 14 18 13 18 34 10z m272 -34
c-7 -46 -54 -167 -67 -176 -14 -8 -11 29 6 76 24 67 21 69 -42 24 -40 -29 -25
0 31 59 66 69 81 72 72 17z m-445 -6 c23 -21 14 -44 -17 -44 -26 0 -40 20 -30
45 7 19 25 19 47 -1z m883 -9 c5 -14 -18 -45 -34 -45 -13 0 -28 32 -23 48 6
17 50 15 57 -3z m-1660 -21 c26 -10 20 -44 -8 -44 -28 0 -40 14 -32 35 6 16
16 18 40 9z m1666 -73 c0 -6 -5 -13 -10 -16 -15 -9 -43 3 -35 15 8 13 45 13
45 1z m-1070 -16 c17 -20 5 -45 -20 -45 -23 0 -35 22 -26 45 7 19 30 19 46 0z
m-462 -29 c-4 -31 -38 -34 -38 -3 0 29 7 37 27 30 8 -3 13 -15 11 -27z m242
-101 c-23 -47 -46 -88 -52 -91 -18 -12 -18 4 1 49 11 25 17 48 14 51 -3 3 -18
-1 -34 -9 -65 -34 -46 -8 40 56 36 26 67 44 69 39 2 -5 -15 -48 -38 -95z
m1050 81 c0 -32 -20 -44 -36 -22 -16 23 -7 46 17 46 13 0 19 -7 19 -24z m198
-3 c-4 -22 -22 -20 -26 1 -2 10 3 16 13 16 10 0 15 -7 13 -17z m-643 -38 c0
-13 -8 -21 -22 -23 -19 -3 -23 1 -23 23 0 22 4 26 23 23 14 -2 22 -10 22 -23z
m-165 1 c0 -7 -7 -33 -15 -56 -8 -23 -15 -57 -15 -75 0 -18 7 -38 15 -45 19
-16 19 -56 0 -64 -40 -15 -58 70 -34 157 6 22 8 41 5 44 -3 3 -34 -11 -68 -32
-67 -39 -113 -50 -113 -25 0 8 22 22 54 33 29 11 74 32 100 47 52 32 71 36 71
16z m793 -38 c7 -22 -4 -38 -28 -38 -27 0 -39 14 -31 35 7 18 53 20 59 3z
m-407 -22 c7 -19 -13 -56 -31 -56 -19 0 -29 38 -15 55 16 19 39 19 46 1z
m-1086 -19 c0 -18 -48 -83 -89 -121 -38 -36 -39 -28 -5 24 15 22 25 43 22 45
-3 3 -24 -2 -48 -10 -57 -20 -68 -19 -45 5 20 19 128 69 153 70 6 0 12 -6 12
-13z m374 -9 c15 -24 -10 -51 -35 -37 -22 11 -24 30 -7 47 15 15 28 11 42 -10z
m-278 -42 c15 -12 17 -18 8 -33 -15 -24 -58 -24 -62 0 -4 18 14 47 27 47 4 0
16 -6 27 -14z m1279 -46 c0 -18 -6 -26 -22 -28 -20 -3 -23 1 -23 28 0 27 3 31
23 28 16 -2 22 -10 22 -28z m-877 -13 c3 -22 -1 -27 -17 -27 -15 0 -21 6 -21
23 0 46 33 49 38 4z m749 -37 c-4 -34 -14 -73 -22 -88 -16 -27 -16 -26 -12 25
l4 53 -43 -40 c-42 -39 -64 -49 -64 -31 0 11 123 141 134 141 5 0 6 -27 3 -60z
m-337 22 c0 -24 -91 -174 -108 -180 -8 -2 -1 21 18 58 17 34 29 64 26 67 -2 3
-25 -7 -50 -22 -70 -41 -55 -15 26 43 78 57 88 61 88 34z m-681 -21 c19 -12 6
-41 -18 -41 -26 0 -36 17 -21 35 14 17 20 18 39 6z m-159 -86 c0 -23 -24 -40
-41 -29 -14 8 -11 62 4 67 18 7 37 -12 37 -38z m988 6 c2 -13 -2 -27 -9 -32
-20 -12 -49 9 -49 37 0 22 4 25 28 22 20 -2 28 -9 30 -27z m-654 -28 c-48 -83
-73 -121 -84 -128 -13 -8 -13 -5 5 44 17 48 11 50 -54 21 -24 -11 -46 -18 -49
-16 -6 7 179 126 196 126 10 0 6 -14 -14 -47z m221 -13 c9 -15 -14 -40 -31
-33 -22 8 -18 43 5 43 11 0 23 -5 26 -10z m-145 -65 c17 -20 8 -50 -14 -50
-23 0 -41 27 -33 49 8 20 31 21 47 1z m678 -7 c19 -19 15 -48 -8 -48 -23 0
-35 22 -26 45 7 18 18 19 34 3z m-479 -140 c-38 -99 -58 -138 -68 -138 -9 0 3
52 24 103 9 22 3 22 -46 -4 -22 -11 -48 -19 -57 -16 -18 3 132 107 155 107 9
0 7 -15 -8 -52z m229 26 c15 -26 3 -56 -21 -52 -29 4 -44 32 -28 52 17 21 38
20 49 0z m101 -121 c-1 -39 -45 -167 -58 -171 -14 -5 -14 -5 6 86 7 30 -13 29
-60 -4 -40 -27 -60 -26 -37 1 18 21 130 105 141 105 5 0 9 -8 8 -17z m-242
-44 c17 -17 4 -39 -22 -39 -27 0 -39 14 -31 35 6 18 37 20 53 4z"/>
<path d="M33165 5331 c-17 -4 -25 -9 -19 -13 11 -7 51 -12 304 -38 195 -21
268 -48 602 -227 123 -66 331 -176 463 -243 132 -68 275 -145 317 -172 176
-112 299 -307 377 -598 66 -245 206 -819 231 -942 12 -62 26 -74 36 -31 8 32
-11 148 -83 493 -125 604 -179 751 -348 960 -93 116 -178 171 -725 467 -516
279 -594 313 -765 332 -121 13 -353 21 -390 12z"/>
<path d="M32610 5221 c-70 -23 -225 -101 -313 -158 -73 -46 -235 -197 -297
-275 -30 -37 -49 -82 -90 -210 -82 -257 -113 -305 -398 -612 -86 -93 -163
-178 -171 -189 -12 -17 -12 -18 5 -9 11 6 66 52 124 103 359 315 397 363 485
619 26 74 60 162 75 195 73 152 304 354 550 480 61 31 110 60 110 65 0 14 -16
12 -80 -9z"/>
<path d="M31204 4954 c-438 -314 -762 -791 -900 -1329 -52 -206 -59 -272 -59
-575 0 -220 4 -294 18 -370 19 -101 48 -213 53 -207 2 2 -3 88 -11 193 -19
247 -19 571 0 694 30 204 112 465 199 641 105 211 248 398 551 724 204 219
245 265 245 276 0 17 -17 9 -96 -47z"/>
<path d="M32820 4939 c-163 -24 -389 -141 -520 -271 -172 -170 -224 -285 -351
-771 -102 -392 -144 -508 -228 -631 -15 -22 -33 -51 -40 -63 -19 -36 10 -19
50 30 124 150 167 248 279 641 124 432 176 547 321 697 215 221 527 329 796
273 94 -19 149 -43 299 -132 295 -173 556 -292 884 -403 116 -40 150 -46 150
-30 0 25 -83 65 -465 226 -198 84 -376 172 -569 283 -176 101 -259 137 -346
151 -74 12 -179 12 -260 0z"/>
<path d="M34750 4191 c0 -5 31 -34 68 -64 194 -159 293 -313 366 -567 13 -47
45 -177 71 -290 53 -228 60 -249 71 -206 16 66 -31 354 -92 555 -77 254 -215
439 -410 552 -53 30 -74 36 -74 20z"/>
<path d="M33387 3633 c-7 -11 36 -37 76 -47 25 -6 28 -11 23 -32 -6 -21 -3
-25 24 -30 36 -8 63 -34 34 -34 -12 0 -15 -3 -8 -10 6 -6 66 -14 135 -20 142
-11 196 -25 311 -80 90 -44 106 -47 147 -26 37 20 53 40 45 60 -16 41 -337
171 -496 201 -106 20 -283 31 -291 18z"/>
<path d="M33377 3390 c-71 -12 -185 -49 -232 -73 l-40 -21 40 -7 c22 -4 70 -8
106 -8 86 -1 129 -10 129 -27 0 -30 153 -7 222 33 43 25 59 67 35 90 -13 14
-38 18 -115 20 -53 1 -119 -2 -145 -7z"/>
<path d="M33664 3324 c-12 -46 15 -100 118 -241 125 -172 161 -209 204 -217
46 -9 84 2 84 24 0 49 -259 380 -338 433 -51 34 -60 34 -68 1z"/>
<path d="M32835 3240 c-71 -8 -185 -45 -185 -60 0 -11 26 -20 56 -20 17 0 24
-6 24 -19 0 -10 7 -22 16 -25 9 -3 109 -6 223 -6 175 0 220 -3 286 -20 43 -11
84 -20 91 -20 17 0 67 97 54 105 -5 3 -39 17 -75 30 -100 38 -318 53 -490 35z"/>
<path d="M33415 3124 c-51 -55 -44 -67 213 -341 l114 -123 30 18 c41 24 98 72
98 82 0 5 -31 47 -70 94 -101 122 -305 296 -347 296 -8 0 -25 -12 -38 -26z"/>
<path d="M35125 3065 c-45 -44 -31 -121 27 -151 39 -20 62 -17 97 12 26 22 31
33 31 70 0 34 -6 51 -25 69 -34 35 -96 35 -130 0z m117 -32 c10 -9 18 -22 18
-30 0 -21 -46 -63 -69 -63 -44 0 -78 69 -49 98 17 17 78 15 100 -5z"/>
<path d="M35523 3043 c-62 -12 -82 -103 -38 -168 14 -20 22 -35 18 -33 -4 2
-20 10 -36 17 -15 8 -30 12 -33 8 -3 -3 -1 -36 5 -74 12 -79 29 -97 80 -89 61
9 129 97 101 131 -10 12 -8 19 8 40 67 85 2 190 -105 168z m79 -50 c38 -34 13
-103 -37 -103 -37 0 -55 10 -70 40 -13 26 -13 30 10 54 28 30 69 34 97 9z"/>
<path d="M32533 2989 c-34 -5 -102 -23 -150 -40 -84 -30 -203 -85 -203 -94 0
-2 16 -1 35 2 31 5 35 3 35 -15 0 -21 10 -26 73 -38 31 -5 37 -10 32 -25 -7
-23 -6 -22 132 40 140 63 237 85 353 78 55 -3 135 -16 190 -31 115 -31 141
-32 165 -6 17 19 17 21 0 40 -22 24 -118 55 -231 75 -106 18 -352 27 -431 14z"/>
<path d="M33214 2845 c-9 -14 -13 -33 -9 -44 8 -25 248 -256 328 -317 65 -49
102 -62 126 -47 45 28 9 107 -99 214 -82 81 -278 219 -310 219 -11 0 -27 -11
-36 -25z"/>
<path d="M34012 2833 c-31 -6 -55 -61 -93 -207 l-28 -111 -1 98 0 97 -27 -6
c-45 -10 -71 -32 -95 -77 -22 -41 -22 -50 -23 -382 0 -259 3 -345 13 -362 37
-65 59 1 91 262 l8 70 2 -90 c1 -92 11 -129 30 -110 6 6 26 72 46 148 19 75
55 190 80 254 49 128 70 243 63 346 -4 52 -18 80 -38 75 -3 0 -16 -3 -28 -5z"/>
<path d="M30482 2793 c-20 -8 -46 -68 -107 -253 l-58 -175 11 -200 c14 -233
26 -298 92 -496 171 -509 382 -778 835 -1066 144 -92 264 -157 273 -148 9 9
-25 33 -148 106 -387 229 -626 453 -731 685 -77 171 -153 438 -184 639 -20
137 -17 541 4 519 3 -3 9 -137 12 -297 6 -283 7 -296 37 -412 82 -320 192
-553 338 -714 89 -98 305 -269 437 -345 26 -16 47 -26 47 -24 0 3 -41 35 -91
72 -108 81 -313 283 -387 381 -62 83 -151 259 -186 368 -37 115 -56 261 -67
530 -10 248 -7 334 5 135 38 -640 93 -817 344 -1118 81 -97 183 -194 282 -267
69 -51 210 -137 215 -131 3 2 -33 34 -79 70 -46 36 -98 88 -117 114 -18 27
-62 87 -97 134 l-65 85 153 -150 c84 -82 136 -130 116 -105 -21 25 -69 81
-106 125 -130 154 -216 307 -261 465 -36 123 -42 218 -28 455 11 199 11 226
-4 269 -19 54 -4 60 26 9 17 -29 17 -43 6 -207 -6 -97 -9 -243 -6 -324 4 -124
9 -159 31 -225 56 -166 172 -362 272 -457 l58 -55 -45 53 c-87 106 -102 128
-145 217 -79 166 -100 327 -73 560 5 50 10 137 11 195 0 111 -10 152 -76 307
-15 35 -28 89 -31 125 -6 73 -1 68 15 -16 17 -82 27 -57 36 88 l8 121 8 -151
c7 -148 22 -224 44 -231 20 -7 26 38 31 224 3 103 9 180 14 177 14 -8 10 -264
-6 -427 -20 -203 -45 -556 -45 -647 0 -148 42 -273 139 -413 48 -69 121 -150
121 -133 0 4 -27 50 -59 102 -117 186 -154 350 -133 593 7 75 25 213 41 306
31 177 51 359 51 457 0 31 5 60 10 63 26 16 1 -277 -46 -530 -20 -111 -27
-184 -31 -350 -5 -208 -5 -211 21 -289 30 -89 105 -251 112 -243 3 3 -15 52
-40 109 -107 245 -103 340 28 813 21 74 39 165 42 210 7 99 13 119 25 87 14
-37 -7 -153 -77 -413 -77 -286 -88 -380 -60 -519 17 -81 57 -184 89 -225 32
-42 26 -5 -12 76 -64 134 -86 294 -60 421 6 29 47 137 90 240 92 214 115 303
100 383 -6 29 -37 106 -70 171 -32 66 -72 150 -87 188 -39 102 -61 133 -110
162 -55 32 -129 34 -195 5 -25 -11 -70 -26 -100 -32 -94 -20 -110 -40 -67 -86
32 -34 17 -37 -31 -5 -26 16 -48 42 -59 66 -55 125 -78 161 -117 183 -38 21
-101 29 -133 16z m487 -334 c15 -88 14 -98 -5 -69 -10 14 -32 41 -51 61 l-35
36 26 7 c13 3 28 15 31 27 10 32 22 11 34 -62z m-210 -449 c28 -556 38 -636
101 -766 51 -105 112 -186 258 -341 65 -68 119 -129 121 -136 7 -26 -224 212
-285 293 -177 234 -201 356 -218 1090 -6 269 7 187 23 -140z m110 30 c6 -69
16 -221 21 -339 16 -310 36 -405 116 -561 47 -92 52 -104 24 -65 -75 105 -125
244 -139 385 -12 108 -52 735 -50 767 2 36 18 -65 28 -187z"/>
<path d="M31307 2639 c-16 -9 -18 -19 -12 -57 11 -72 44 -171 84 -247 l36 -70
3 42 c2 24 -7 81 -19 128 -12 47 -19 88 -16 91 9 9 47 -128 73 -265 30 -159
33 -166 47 -152 16 16 13 211 -3 298 -15 76 -7 91 17 37 15 -32 18 -67 18
-189 -1 -177 -2 -183 -132 -465 -47 -102 -94 -210 -105 -240 -18 -54 -37 -200
-25 -200 3 0 11 28 18 62 9 43 51 141 140 318 69 141 137 284 149 318 13 35
24 61 26 59 9 -9 -38 -121 -147 -354 -66 -139 -126 -279 -134 -310 -27 -102
-13 -261 31 -344 25 -49 27 -27 5 49 -25 82 -28 202 -7 280 22 83 71 177 160
312 158 239 189 309 190 440 0 47 -3 99 -7 115 -6 21 -5 27 2 20 18 -18 33
-125 28 -192 -6 -80 -39 -149 -161 -338 -53 -82 -118 -192 -144 -244 l-47 -94
0 -143 c0 -127 2 -145 19 -161 18 -18 18 -17 12 27 -35 232 -13 304 165 540
56 74 117 167 136 205 65 138 77 294 31 430 -30 91 -87 193 -125 224 -61 50
-264 97 -306 70z m313 -348 c0 -71 -6 -63 -14 19 -5 45 -4 60 4 50 5 -8 10
-39 10 -69z"/>
<path d="M33667 2389 c-55 -93 -81 -212 -92 -419 -8 -135 0 -199 35 -293 23
-61 86 -137 113 -137 36 0 40 111 13 385 -8 88 -18 232 -21 319 -3 88 -10 166
-14 174 -6 11 -15 4 -34 -29z"/>
<path d="M33257 1530 c-27 -5 -55 -14 -64 -22 -25 -20 -43 -73 -43 -123 0 -45
1 -46 28 -43 23 3 27 8 30 40 l3 37 31 -34 c38 -44 67 -45 131 -5 49 31 59 57
32 80 -8 7 -15 19 -15 28 0 13 4 12 23 -5 12 -11 33 -26 46 -33 21 -11 26 -10
38 6 17 23 13 33 -18 57 -30 22 -146 31 -222 17z m57 -109 c-5 -6 -33 31 -33
44 -1 6 8 -1 19 -15 10 -14 17 -27 14 -29z"/>
<path d="M33654 1470 c-191 -28 -317 -133 -317 -265 0 -81 49 -157 127 -197
21 -11 124 -49 229 -85 105 -35 209 -74 230 -85 56 -28 130 -99 200 -193 153
-204 222 -238 408 -200 127 25 201 65 289 154 71 72 133 171 117 188 -14 13
-73 -26 -212 -137 -77 -62 -149 -120 -160 -128 -27 -21 59 63 173 168 51 47
92 91 92 98 0 33 -41 10 -275 -153 -60 -42 -118 -81 -127 -86 -44 -24 -8 6
109 92 70 52 149 112 174 135 l47 42 -28 27 -29 28 -128 -95 c-158 -117 -228
-165 -219 -150 4 7 60 52 124 101 149 114 196 162 187 189 -13 44 -41 37 -148
-39 -209 -148 -228 -161 -233 -157 -2 3 39 38 93 79 113 84 203 166 203 184 0
18 -21 24 -46 15 -12 -5 -59 -37 -105 -72 -105 -80 -184 -134 -176 -121 4 6
58 55 121 108 64 54 119 109 123 122 l8 24 88 -57 c48 -31 90 -54 93 -51 10
10 -48 77 -116 135 -77 65 -135 93 -370 177 -96 34 -210 78 -252 98 -43 20
-78 32 -78 27 0 -17 51 -69 98 -98 26 -17 90 -47 142 -68 52 -20 99 -40 103
-44 4 -4 -43 -41 -105 -82 -187 -124 -210 -129 -51 -9 58 43 89 74 91 89 6 42
-46 28 -164 -44 -166 -102 -174 -106 -174 -102 0 2 52 42 115 88 63 47 114 90
115 96 0 22 -39 22 -89 -1 -27 -13 -88 -46 -135 -74 -98 -58 -166 -93 -166
-87 0 3 51 36 113 75 129 80 188 134 168 154 -10 10 -50 -7 -202 -85 -104 -54
-189 -94 -189 -90 0 8 58 43 202 122 113 62 140 84 131 106 -9 25 -53 13 -209
-56 -189 -84 -192 -84 -24 5 80 42 156 86 169 99 l24 24 -22 11 c-23 13 -116
-15 -240 -70 -75 -34 -87 -36 -46 -9 30 20 70 40 192 95 92 41 68 54 -63 35z
m663 -326 c4 -11 -158 -141 -222 -179 l-30 -17 31 28 c17 16 59 53 93 83 35
29 68 64 74 78 11 25 47 29 54 7z m111 -47 c-3 -12 -226 -188 -268 -212 -19
-10 -22 -13 122 118 107 98 155 128 146 94z"/>
<path d="M32847 1396 c-41 -15 -55 -25 -105 -70 -63 -58 -74 -107 -29 -122 17
-5 1 -13 -68 -35 -109 -34 -178 -84 -213 -151 -49 -94 -12 -145 278 -386 90
-75 186 -164 213 -197 74 -92 161 -226 160 -246 -2 -19 15 -38 32 -37 6 1 19
-15 30 -35 11 -20 25 -37 30 -37 6 0 33 -11 60 -25 44 -22 63 -24 165 -24 155
-1 232 12 339 55 93 37 145 74 104 74 -12 0 -49 -9 -84 -19 -89 -27 -163 -41
-207 -40 -25 0 -1 8 71 24 109 24 163 47 152 65 -10 16 -74 12 -216 -15 -185
-34 -190 -30 -17 15 169 44 174 46 157 66 -21 25 -74 25 -242 -1 -195 -30
-241 -29 -82 3 154 31 238 55 243 70 5 16 -57 42 -100 42 l-32 0 27 28 c31 32
34 42 12 42 -8 0 -15 7 -15 15 0 16 -69 71 -109 86 -13 6 -29 17 -35 25 -10
12 -17 13 -41 4 -42 -16 -256 -61 -268 -57 -6 2 34 16 89 31 165 47 204 68
136 73 -77 5 -115 3 -191 -11 -132 -25 -146 -17 -26 15 61 16 120 32 132 35
14 4 33 -2 53 -16 17 -12 33 -20 36 -18 2 3 -27 26 -65 52 -89 60 -109 82 -55
60 22 -9 61 -27 88 -41 26 -13 45 -20 41 -14 -12 20 14 11 28 -9 7 -10 58 -53
113 -94 106 -78 188 -161 236 -235 15 -25 28 -40 28 -34 0 40 -147 197 -267
285 -80 58 -112 89 -55 53 159 -102 225 -163 329 -302 46 -62 100 -124 121
-138 59 -39 137 -52 224 -37 136 23 328 139 328 199 0 23 -3 25 -29 20 -16 -4
-80 -36 -143 -73 -139 -82 -128 -76 -128 -70 0 2 42 34 93 69 51 36 100 73
107 83 14 16 11 17 -40 12 -41 -3 -83 -18 -169 -62 -62 -31 -115 -55 -117 -53
-2 2 40 33 93 68 98 64 127 99 82 99 -12 0 -69 -25 -126 -56 -117 -62 -149
-69 -47 -9 36 21 79 51 95 66 31 29 39 69 13 69 -8 0 -69 -25 -136 -56 -66
-30 -122 -53 -126 -50 -7 8 -11 5 90 60 48 25 100 58 117 71 16 14 33 25 38
25 5 0 27 -19 48 -41 48 -50 113 -99 132 -99 25 0 13 29 -45 102 -32 40 -72
94 -90 119 -42 62 -116 128 -183 162 -57 29 -53 26 44 -38 36 -24 79 -65 106
-101 83 -111 156 -213 160 -225 9 -29 -67 33 -116 94 -30 38 -62 71 -70 74 -9
4 -66 -19 -131 -51 -63 -31 -116 -55 -119 -52 -6 5 171 110 212 126 27 10 27
12 12 27 -25 26 -72 19 -180 -27 -54 -23 -104 -39 -110 -37 -7 2 33 27 88 55
55 27 108 60 117 71 17 20 16 21 -50 64 -37 24 -73 51 -81 60 -13 17 -51 24
-51 10 0 -5 39 -30 87 -57 l87 -50 -55 -12 c-30 -7 -97 -31 -149 -53 -51 -23
-95 -39 -97 -38 -2 2 46 30 107 63 60 32 109 63 107 69 -8 24 -68 14 -181 -30
-65 -26 -120 -45 -122 -43 -2 3 29 20 69 38 105 50 131 69 116 86 -24 29 -73
19 -256 -55 -80 -31 -64 -17 30 27 45 21 93 48 107 60 l25 21 -30 1 c-16 0
-96 -23 -178 -51 -82 -28 -150 -49 -152 -47 -3 2 52 30 120 63 69 32 125 62
125 68 0 16 -96 -1 -213 -39 -59 -20 -112 -34 -118 -32 -5 2 45 25 111 52 122
49 164 76 119 76 -13 0 -91 -14 -173 -30 -83 -16 -151 -28 -153 -26 -2 1 43
15 100 31 119 33 167 54 167 72 0 18 -48 17 -150 -3 -115 -21 -132 -13 -26 14
49 13 104 29 123 37 94 39 -38 60 -164 25 -41 -11 -77 -19 -80 -17 -6 7 45 25
141 52 137 37 134 48 -13 43 -139 -6 -140 3 -1 27 112 19 154 40 158 78 3 27
3 27 -55 27 -80 0 -187 -25 -237 -54 -52 -31 -123 -106 -132 -141 -3 -14 -4
-55 -2 -92 l4 -67 61 -55 c33 -31 120 -92 192 -135 72 -44 129 -81 127 -83 -2
-2 -45 17 -96 42 -142 71 -154 73 -90 15 30 -27 58 -50 63 -50 4 0 7 -4 7 -9
0 -4 -17 -4 -38 2 -30 8 -58 5 -147 -16 -60 -15 -111 -24 -113 -22 -6 5 -4 6
107 43 131 44 121 56 -43 50 -75 -2 -136 -3 -136 -2 0 1 26 8 58 14 104 21
132 30 132 45 0 12 -22 15 -122 16 l-123 1 87 17 c49 10 91 21 95 25 13 12
-28 36 -61 36 l-30 0 22 16 c33 23 25 56 -15 68 -33 9 -45 26 -20 26 27 0 50
26 43 48 -7 21 -13 22 -133 22 -70 0 -124 2 -122 4 2 3 58 12 124 20 93 13
124 21 140 36 17 18 18 22 5 30 -8 5 -25 10 -37 10 -37 0 -53 11 -53 37 0 13
-5 33 -11 44 -21 40 -2 40 26 0 33 -49 58 -65 85 -56 26 8 25 25 -5 88 l-26
52 43 -48 c46 -50 71 -59 87 -29 7 14 6 25 -5 40 -18 26 -13 27 27 6 38 -19
86 -10 95 18 10 32 -19 51 -88 59 -35 3 -79 9 -98 13 -20 3 -51 0 -73 -8z
m-174 -413 c-7 -2 -21 -2 -30 0 -10 3 -4 5 12 5 17 0 24 -2 18 -5z m796 -497
c16 -20 10 -23 -119 -51 -135 -30 -240 -42 -240 -28 0 12 46 23 94 23 38 0
161 26 199 41 21 9 26 16 21 31 -5 17 -3 18 13 9 11 -5 25 -17 32 -25z m-130
-156 c-20 -12 -133 -30 -122 -19 9 8 86 26 118 28 17 0 18 -1 4 -9z"/>
<path d="M32323 1311 c-42 -18 -54 -52 -51 -137 3 -75 4 -79 27 -82 24 -4 24
-3 17 53 -7 59 7 70 19 15 8 -35 48 -70 81 -70 29 0 30 15 9 84 -19 64 -12 70
14 12 11 -26 27 -49 36 -52 20 -8 61 29 70 63 l6 26 20 -22 c28 -30 73 -25 77
7 5 32 -30 67 -87 87 -54 20 -206 29 -238 16z"/>
<path d="M31944 1226 c-58 -25 -53 -55 5 -35 24 8 35 8 46 -1 12 -10 18 -10
30 0 11 10 20 5 46 -24 17 -20 37 -36 45 -36 22 0 16 35 -11 64 -43 46 -101
58 -161 32z"/>
<path d="M32160 1131 c0 -51 61 -72 68 -23 5 30 -14 52 -44 52 -20 0 -24 -5
-24 -29z"/>
<path d="M31917 1140 c-49 -15 -114 -77 -143 -136 -25 -51 -26 -62 -21 -137
12 -160 104 -407 201 -534 123 -162 264 -255 418 -274 98 -13 128 -8 107 17
-23 28 -93 63 -149 75 -68 14 -87 29 -37 29 25 0 37 5 37 14 0 18 -60 46 -102
47 -18 0 -42 4 -53 8 -17 7 -15 9 15 15 108 22 92 39 -65 70 l-70 14 72 1 c39
0 74 5 77 10 9 14 -51 60 -87 65 -18 3 -54 9 -82 13 l-50 8 45 2 c78 5 110 13
110 28 0 21 -43 46 -103 61 l-52 12 46 1 c29 1 51 7 59 17 23 27 -17 54 -101
69 l-74 13 57 1 c70 1 88 8 88 33 0 34 -19 57 -68 83 l-47 24 38 1 c25 0 40 5
44 16 9 23 -17 39 -87 54 -33 7 -63 17 -67 23 -4 6 0 8 10 4 9 -3 51 -9 93
-13 l76 -7 -11 22 c-7 12 -37 38 -67 57 -58 37 -68 57 -16 30 72 -37 140 -13
97 34 -11 12 -36 30 -55 41 -22 11 -29 18 -17 19 10 0 36 -9 58 -21 72 -36
127 -7 82 43 -42 48 -135 69 -206 48z"/>
<path d="M31525 1126 c-63 -18 -90 -50 -105 -123 -32 -152 36 -393 153 -548
53 -70 120 -136 181 -178 122 -83 308 -121 216 -44 -29 25 -69 42 -165 71
l-50 15 60 -5 c33 -3 65 -7 70 -7 6 -1 10 4 10 12 0 23 -48 51 -121 71 l-69
19 60 -2 c88 -3 81 20 -20 61 l-80 32 61 -6 c121 -11 79 49 -62 91 -49 15 -95
29 -103 31 -8 3 -11 7 -8 10 3 3 41 -2 85 -10 98 -21 129 -13 99 24 -21 26
-45 41 -104 66 l-58 24 73 -7 c62 -5 72 -4 72 10 0 22 -33 43 -117 71 -144 49
-153 71 -12 27 97 -30 119 -28 100 8 -13 23 -44 41 -126 72 -31 11 -54 23 -52
25 3 3 41 -4 86 -16 45 -11 86 -18 91 -15 4 3 5 17 1 33 -7 27 -24 39 -91 66
-34 13 -32 14 38 9 92 -7 98 12 15 50 -64 30 -65 29 59 10 30 -4 39 -2 44 11
4 10 0 24 -9 33 -22 22 -156 27 -222 9z"/>
<path d="M32270 1056 c-100 -26 -155 -88 -167 -184 -16 -135 96 -394 261 -607
139 -177 281 -258 456 -258 90 1 222 26 239 46 22 28 -6 42 -96 47 l-88 5 43
14 c46 15 67 34 57 51 -4 6 -61 10 -148 11 l-142 1 111 18 c119 19 134 24 134
45 0 24 -41 30 -195 29 l-150 -1 85 13 c47 7 126 13 177 15 l92 2 -15 29 c-19
37 -163 189 -219 230 -22 17 1 -9 50 -56 l90 -87 -49 5 c-28 4 -95 9 -150 13
l-101 8 103 6 c57 4 106 9 109 13 21 20 -56 35 -232 46 -5 0 -3 5 5 10 8 5 45
10 83 10 37 0 67 4 67 10 0 25 -66 41 -208 51 -81 5 -151 11 -157 13 -5 1 48
5 119 9 71 3 134 11 139 16 7 7 -5 17 -39 33 -37 16 -76 23 -159 27 l-110 6
94 12 c52 7 98 16 103 21 13 13 -63 41 -133 49 -81 8 -75 23 10 23 53 0 74 -4
94 -20 27 -22 60 -29 40 -9 -6 6 -9 17 -7 24 3 7 -1 17 -8 21 -20 13 -139 43
-170 44 -54 0 -38 19 19 22 66 3 79 24 26 42 -46 16 -51 26 -12 26 51 0 66 14
38 34 -13 9 -30 16 -39 17 -8 0 3 7 25 15 22 8 47 17 55 20 12 4 12 8 -4 20
-24 17 -65 17 -126 0z m618 -686 l23 -30 -213 0 c-120 0 -220 5 -228 10 -12 7
-8 10 15 10 73 0 308 22 328 30 38 15 52 11 75 -20z m-41 -276 c-3 -3 -12 -4
-19 -1 -8 3 -5 6 6 6 11 1 17 -2 13 -5z"/>
<path d="M33665 890 c3 -5 15 -10 26 -10 11 0 17 5 14 10 -3 6 -15 10 -26 10
-11 0 -17 -4 -14 -10z"/>
<path d="M32400 861 c0 -12 5 -21 10 -21 6 0 10 6 10 14 0 8 -4 18 -10 21 -5
3 -10 -3 -10 -14z"/>
<path d="M32500 743 c0 -6 10 -18 22 -29 12 -10 18 -13 14 -6 -13 21 7 13 68
-30 33 -23 56 -36 52 -30 -8 13 -117 89 -141 98 -8 4 -15 2 -15 -3z"/>
<path d="M31325 720 c10 -11 20 -20 23 -20 3 0 -3 9 -13 20 -10 11 -20 20 -23
20 -3 0 3 -9 13 -20z"/>
<path d="M32760 555 c13 -14 26 -25 28 -25 3 0 -5 11 -18 25 -13 14 -26 25
-28 25 -3 0 5 -11 18 -25z"/>
<path d="M32948 355 c89 -119 137 -179 126 -155 -13 26 -171 235 -190 251 -9
7 19 -35 64 -96z"/>
<path d="M33585 390 c10 -11 20 -20 23 -20 3 0 -3 9 -13 20 -10 11 -20 20 -23
20 -3 0 3 -9 13 -20z"/>
<path d="M32970 230 c24 -46 135 -170 154 -170 6 0 -6 14 -27 31 -20 17 -58
61 -84 97 -61 88 -70 97 -43 42z"/>
<path d="M33188 43 c7 -3 16 -2 19 1 4 3 -2 6 -13 5 -11 0 -14 -3 -6 -6z"/>
</g>
</svg>
